<svg width="115" height="36" viewBox="0 0 115 36" fill="none" xmlns="http://www.w3.org/2000/svg">
<g clip-path="url(#clip0_8_129)">
<path d="M66.0133 13.6714C65.5492 14.4677 65.7749 15.3771 65.7657 16.256C65.7367 19.0345 65.7295 21.8142 65.7799 24.5921C65.804 25.9226 65.2743 26.4815 64.0114 26.4065C63.1244 26.3539 62.2324 26.3667 61.3434 26.386C60.1842 26.4111 59.7666 25.7475 59.7651 24.6456C59.7555 17.394 59.7343 10.1424 59.7375 2.89077C59.7384 0.969298 60.0775 0.647573 61.8958 0.615018C66.9713 0.524195 66.9861 0.518088 68.8147 5.34261C69.993 8.45155 71.1167 11.583 72.2733 14.7009C72.5171 15.3582 72.6492 16.0818 73.3344 16.7338C74.325 14.1243 75.2814 11.6104 76.2335 9.09481C77.1026 6.79853 77.9996 4.51284 78.8194 2.19757C79.2189 1.06947 79.8817 0.559352 81.0417 0.610437C82.3243 0.666914 83.6111 0.635358 84.8958 0.618845C85.971 0.605009 86.5449 1.03354 86.5412 2.25354C86.5188 9.76667 86.5195 17.2799 86.5334 24.7931C86.5355 25.8943 86.0898 26.4141 85.0298 26.3924C84.1406 26.3741 83.2481 26.3456 82.3618 26.4022C80.9318 26.4935 80.426 25.7671 80.4386 24.3604C80.4705 20.8113 80.4492 17.2617 80.263 13.6452C79.112 16.6708 77.9605 19.6962 76.8109 22.7224C76.6838 23.0569 76.574 23.3985 76.446 23.7326C75.4497 26.3349 74.1067 27.0398 71.5378 26.3426C70.6702 26.1072 70.482 25.3316 70.2122 24.6261C68.8237 20.9955 67.4476 17.3598 66.0133 13.6714Z" fill="white"/>
<path d="M112.201 23.5898C115.048 26.7966 114.623 26.3073 111.886 28.5389C110.236 29.8837 110.183 29.9684 108.833 28.2353C107.73 26.8196 106.725 26.3776 104.839 26.8958C96.7545 29.1176 88.9687 22.4382 88.9984 13.5305C89.0225 6.33154 93.5306 0.97944 100.591 0.0887429C106.031 -0.597593 112.516 2.69989 114.484 9.88598C115.645 14.1223 114.795 18.0223 112.458 21.6276C112.09 22.1954 111.438 22.733 112.201 23.5898ZM95.5898 9.76211C94.242 12.899 94.4497 15.9048 96.5532 18.578C98.0068 20.4252 99.9235 21.4509 102.412 21.224C102.036 19.9521 100.23 19.4835 100.823 18.1906C101.275 17.2077 102.416 16.5651 103.259 15.7812C104.049 15.0474 104.75 15.1926 105.423 15.9963C106.06 16.7568 106.643 17.5906 107.605 18.1799C109.292 15.9178 109.42 13.5084 108.618 11.0102C107.68 8.09231 105.599 6.44402 102.737 6.0612C99.7416 5.66058 97.3174 6.80701 95.5898 9.76211Z" fill="white"/>
<path d="M40.7112 24.8111C37.0907 20.8271 36.8376 14.9413 40.0136 11.103C42.1309 8.54426 46.2289 6.74666 50.7125 9.40576C52.0686 7.586 53.9826 8.41153 55.7184 8.39364C56.4463 8.38612 56.598 9.10939 56.6175 9.76605C56.6769 11.7706 56.7887 13.7758 56.7723 15.7798C56.7416 19.5334 56.8248 23.285 56.6698 27.0418C56.3917 33.782 49.5608 37.8747 43.1093 35.1428C40.9521 34.2293 39.3663 32.6657 38.5892 30.334C38.0601 28.7465 38.32 28.3671 39.8941 28.3369C40.9313 28.3171 41.9695 28.3638 43.0071 28.3576C43.5973 28.3541 44.0135 28.6021 44.4011 29.072C45.6247 30.5554 47.162 30.9959 48.7329 30.383C50.1319 29.8373 51.033 28.303 51.0496 26.4184C51.0522 26.1218 51.0106 25.8247 50.9797 25.392C47.3915 27.789 44.0162 27.6038 40.7112 24.8111ZM46.9422 21.8286C49.3397 21.7155 50.7767 20.529 51.0302 18.4531C51.3108 16.1562 50.354 14.2849 48.6087 13.7169C46.4594 13.0174 44.4041 14.0744 43.7617 16.2096C42.9921 18.7672 44.1725 20.9971 46.9422 21.8286Z" fill="white"/>
<path d="M36.109 16.1115C36.8072 22.1292 33.1315 26.4556 28.1825 27.1154C24.3366 27.6282 21.1542 26.3393 18.9344 22.9643C16.8128 19.7383 16.8079 15.314 18.932 12.2237C21.2407 8.86462 24.4826 7.44648 28.3656 8.1563C32.5583 8.9227 35.2356 11.5379 36.109 16.1115ZM26.4754 21.8272C27.0884 21.9248 27.6574 21.7089 28.203 21.4906C30.0523 20.7509 31.0301 18.6101 30.4976 16.5518C29.9785 14.5454 28.2889 13.4424 26.1688 13.7258C24.2931 13.9766 23.0253 15.6185 23.0574 17.7551C23.0892 19.8648 23.9882 20.9992 26.4754 21.8272Z" fill="white"/>
<path d="M8.17064 20.6544C10.4856 20.6543 12.6585 20.6807 14.8304 20.6431C15.8851 20.6248 16.3863 21.12 16.445 22.1787C16.4507 22.2813 16.4541 22.3841 16.46 22.4867C16.6897 26.4708 16.6012 26.5733 12.7841 26.5783C9.27854 26.5829 5.773 26.5798 2.26747 26.5763C0.246298 26.5743 0.0271477 26.3614 0.0260888 24.3269C0.0223053 17.0263 0.0596885 9.72545 0.000210107 2.42545C-0.0125074 0.863991 0.55103 0.353004 1.98402 0.325181C5.83783 0.250381 5.84025 0.208419 5.84463 4.19857C5.84981 8.9285 5.8489 13.6585 5.85053 18.3884C5.8513 20.6379 5.8512 20.6379 8.17064 20.6544Z" fill="white"/>
</g>
<defs>
<clipPath id="clip0_8_129">
<rect width="115" height="36" fill="white"/>
</clipPath>
</defs>
</svg>
