<svg width="96" height="100" viewBox="0 0 96 100" fill="none" xmlns="http://www.w3.org/2000/svg">
<g clip-path="url(#clip0_8_193)">
<path d="M82.5414 97.4668C86.6645 97.5257 90.6509 97.5957 94.6377 97.6378C95.3709 97.6456 95.9565 97.8455 95.9979 98.6922C96.0391 99.5322 95.4581 99.8567 94.7519 99.9228C94.2626 99.9687 93.7677 99.9579 93.2753 99.9582C71.108 99.9723 48.9406 99.9849 26.7732 99.9976C26.6254 99.9977 26.4772 100.004 26.3299 99.9953C25.5029 99.9445 24.4733 100.075 24.4575 98.8073C24.4406 97.4622 25.5082 97.6928 26.3136 97.6885C29.0229 97.6742 31.7335 97.6393 34.4412 97.7108C35.762 97.7457 36.0609 97.3444 35.6711 95.9838C33.8951 89.7858 32.2045 83.5607 30.4729 77.3485C29.7958 74.9196 29.9218 74.7346 32.4109 74.7322C34.135 74.7306 35.8598 74.7063 37.583 74.7482C38.588 74.7726 39.0082 74.3553 38.9781 73.2797C38.9245 71.3625 38.8445 69.4364 38.9561 67.5257C39.2095 63.1828 36.1772 61.1668 32.9798 60.9046C30.2867 60.6837 27.5648 60.8526 24.8557 60.8472C24.0312 60.8455 23.2826 61.1222 22.6884 61.6977C20.679 63.6443 18.2888 62.4618 16.0681 62.6006C15.5067 62.6357 15.568 61.9425 15.5553 61.4842C15.5388 60.8906 15.767 60.3361 16.3649 60.438C19.2938 60.9367 21.7847 59.3956 24.4559 58.6671C25.5287 58.3745 26.6991 58.4787 28.0245 58.3888C26.9043 56.2634 25.9103 54.164 24.721 52.1953C23.9128 50.8576 22.5589 50.2775 21.0366 50.2483C19.9043 50.2266 18.7706 50.247 17.6394 50.2002C16.9732 50.1726 16.5058 49.8161 16.5038 49.0455C16.5021 48.3404 16.9298 48.0323 17.5433 47.983C22.1091 47.6159 26.1552 48.0189 28.2035 53.9637C29.1156 56.611 30.8454 58.253 33.622 58.5622C35.4509 58.7658 37.2012 59.294 38.7373 60.8284C39.066 59.5996 38.904 58.5337 38.922 57.4926C38.9517 55.782 38.9417 54.0703 38.9281 52.3592C38.9024 49.1151 36.6747 46.6665 33.5879 46.5501C31.9152 46.4871 30.2386 46.5401 28.5638 46.5323C25.2548 46.5168 22.2625 44.4729 21.1302 41.1778C19.7236 37.0845 17.1301 34.8968 12.9419 34.9248C12.6483 34.9267 12.3535 34.8711 12.0607 34.8311C11.4361 34.7456 10.8549 34.5581 10.8659 33.7443C10.8781 32.8398 11.508 32.7148 12.1986 32.6586C16.9966 32.2682 20.8746 34.7436 22.7701 39.4222C24.3424 43.3027 25.6934 44.1904 29.6139 44.2007C35.1097 44.2152 34.0182 43.6235 38.9165 46.1619C38.9165 44.1088 38.822 42.1653 38.934 40.2352C39.2944 34.0244 37.1786 32.3441 31.8592 32.6987C29.4592 32.8587 27.0387 32.7442 24.6249 32.5902C20.3232 32.3156 17.8486 29.7665 17.6829 25.206C17.6189 23.4452 17.6378 21.6802 17.652 19.9174C17.667 18.0495 17.8562 17.9019 19.9338 18.2281C19.9338 19.8184 19.917 21.4606 19.94 23.1021C19.9544 24.1367 19.9872 25.1746 20.0842 26.2035C20.3059 28.5566 21.8037 30.1345 24.0505 30.204C27.25 30.303 30.4533 30.2894 33.6549 30.2867C38.1953 30.2827 41.1485 33.3473 41.1525 38.1498C41.1621 49.7654 41.1555 61.3809 41.1596 72.9965C41.1602 74.6294 41.4868 74.9043 42.9766 74.733C43.6407 74.6567 43.959 74.3544 43.9572 73.6565C43.9557 73.0344 43.968 72.4122 43.9764 71.79C44.1537 58.6746 44.0806 45.5593 43.9896 32.4436C43.968 29.3219 42.5873 27.2646 39.9838 25.9716C38.8291 25.3981 37.6275 24.9173 36.6449 24.0056C35.4734 22.9187 34.8217 21.5866 34.7667 19.9367C34.7429 19.2246 34.9311 18.7181 35.7191 18.6716C36.4127 18.6307 36.9165 18.8689 36.9437 19.6586C37.0109 21.6123 38.1759 22.6207 39.7189 23.2945C41.1692 23.9278 42.5333 24.7149 43.9727 25.9637C43.9727 24.1373 43.9616 22.6053 43.9786 21.0736C43.9849 20.5076 44.0019 19.9298 44.1146 19.3802C44.2454 18.7419 44.7025 18.415 45.3228 18.503C45.8974 18.5846 46.1466 19.0249 46.157 19.6094C46.1707 20.3869 46.1694 21.1648 46.1711 21.9425C46.1785 25.4167 46.1825 28.891 46.1934 32.3653C46.1954 32.9812 46.1413 33.6132 46.6163 34.3814C48.1925 32.4424 50.4422 31.7612 52.404 30.5558C53.7294 29.7415 54.3715 28.3415 54.3496 26.6112C54.2938 22.2042 54.3179 17.7962 54.3114 13.3885C54.3107 12.9219 54.3158 12.4553 54.3244 11.9887C54.3411 11.0883 54.8084 10.6547 55.6351 10.6829C56.4434 10.7105 56.5305 11.3306 56.5307 12.0021C56.5317 15.0097 56.5401 18.0172 56.5407 21.0248C56.541 22.6323 56.4742 24.2423 56.5372 25.8468C56.6877 29.6765 54.8782 32.1178 51.6692 33.551C50.3777 34.1278 49.214 34.8246 48.2837 35.9602C47.0093 37.5159 46.3352 39.2495 46.3381 41.3389C46.3492 49.5302 46.4998 57.7218 46.2331 65.9132C46.154 68.3423 46.3322 70.7798 46.344 73.2137C46.3489 74.2193 46.6296 74.741 47.6951 74.7464C48.8306 74.7521 48.9461 74.1135 48.9443 73.1583C48.9266 63.8762 48.9316 54.5941 48.9348 45.3121C48.9361 41.7752 50.0762 40.0197 53.2672 38.7427C53.881 38.497 54.2018 38.1358 54.4354 37.4983C55.8294 33.6931 57.8227 32.2994 61.6167 32.3994C63.8464 32.4582 65.1962 30.9856 65.4832 28.0883C65.6362 26.5447 65.7141 24.9916 65.7839 23.4406C65.818 22.6838 65.9426 22.1141 66.8335 22.1093C67.6815 22.1046 67.9747 22.6146 67.9734 23.3856C67.9693 25.8797 67.8477 28.3717 67.0097 30.7332C65.9868 33.6157 64.1515 34.7672 60.898 34.7106C58.4705 34.6683 57.0061 35.8868 56.8221 38.1203C57.3539 38.4958 57.9592 38.3195 58.5332 38.3326C60.9925 38.389 63.4743 38.537 65.9068 38.43C69.591 38.268 73.0378 36.9503 75.7458 34.0889C76.4887 33.3039 76.9489 32.3186 77.1429 31.2208C77.3027 30.3159 77.7069 29.7934 78.6567 30.0414C79.7307 30.3219 79.3374 31.1872 79.187 31.811C78.5621 34.4024 77.0818 36.4291 74.9125 37.7143C71.9401 39.4754 68.81 40.8022 65.2622 40.6769C62.2114 40.5692 59.1545 40.6462 56.1003 40.6466C52.3449 40.6472 50.7353 42.6476 51.3404 46.6282C55.1909 44.0203 59.452 45.3294 63.5531 45.224C64.6228 45.1965 65.6256 45.9936 66.3441 46.8453C67.1096 47.7528 67.9788 48.0672 69.0696 48.0639C70.4961 48.0597 71.9226 48.1332 73.3494 48.1556C73.9502 48.165 74.445 48.2991 74.4974 49.0493C74.5495 49.7934 74.1972 50.2685 73.5038 50.3345C71.2447 50.5497 68.9824 50.5652 66.7224 50.3231C66.046 50.2507 65.7355 49.7031 65.4039 49.186C64.629 47.978 63.5578 47.3581 62.1654 47.3614C60.0474 47.3665 57.9275 47.3055 55.812 47.3825C52.9798 47.4857 51.1847 49.5023 51.1753 52.4753C51.1666 55.2014 51.1734 57.9276 51.1734 61.0754C54.3345 58.4266 57.7249 59.2291 60.9632 59.2014C69.8789 59.1249 78.7955 59.1594 87.7118 59.1733C88.6892 59.1748 90.1222 58.8485 90.0681 60.4641C90.0156 62.0336 88.5839 61.4694 87.7118 61.4722C77.4249 61.5053 67.1367 61.5806 56.8515 61.4365C53.6134 61.3912 50.7982 63.7967 51.1533 67.5073C51.3351 69.4068 51.2256 71.3424 51.1739 73.2594C51.1452 74.3251 51.5121 74.7591 52.54 74.7346C54.4601 74.6887 56.3821 74.7126 58.3031 74.7327C60.1048 74.7515 60.2957 75.0738 59.7903 76.8429C57.9766 83.1922 56.1782 89.5464 54.3932 95.9047C53.9344 97.5387 54.0491 97.6782 55.6877 97.679C62.6827 97.6822 69.6779 97.6887 76.6729 97.6619C78.5837 97.6547 80.4942 97.5358 82.5414 97.4668Z" fill="white"/>
<path d="M61.9451 13.1114C62.3936 12.4974 62.9192 12.4238 63.4763 12.4249C65.5909 12.4291 67.7057 12.4443 69.8201 12.4222C70.8805 12.4111 71.3268 12.9155 71.3174 14.0255C71.3056 15.4212 71.3828 16.8176 71.4057 18.214C71.4225 19.2292 70.9457 19.7482 69.9652 19.7389C67.7525 19.718 65.5394 19.7145 63.3269 19.6806C62.4078 19.6666 61.811 19.1691 61.7796 18.1762C61.7274 16.5284 61.5227 14.8726 61.9451 13.1114Z" fill="white"/>
<path d="M9.40712 63.8299C9.11595 63.8306 8.96836 63.833 8.82082 63.8312C4.17928 63.7734 4.97923 64.4339 4.89486 59.4142C4.88106 58.593 5.15462 58.152 5.99245 58.1583C7.8122 58.1721 9.63217 58.1501 11.4521 58.1501C11.6466 58.1501 11.9211 58.1204 12.0236 58.2364C13.1889 59.556 12.5154 61.1536 12.5707 62.6373C12.6071 63.6127 11.9258 63.8 11.1738 63.8146C10.6329 63.8251 10.0918 63.8249 9.40712 63.8299Z" fill="white"/>
<path d="M80.057 27.8833C78.8798 27.8752 77.8478 27.8635 76.8158 27.8606C76.2443 27.859 75.6628 27.7657 75.4884 27.12C75.0654 25.5533 75.1994 23.9484 75.3764 22.3592C75.4211 21.9573 75.7878 21.8002 76.1701 21.838C76.6451 21.8849 76.9325 22.2632 76.8792 22.6761C76.6172 24.7058 77.8403 24.675 79.1585 24.5986C79.8444 24.5589 80.5369 24.6325 81.2217 24.5827C82.3941 24.4973 82.7706 25.1097 82.7867 26.2575C82.8032 27.4327 82.4045 28.0208 81.2336 27.8902C80.8934 27.8522 80.5461 27.8838 80.057 27.8833Z" fill="white"/>
<path d="M87.7147 91.0394C84.8742 91.0433 82.176 91.0441 79.4779 91.0524C78.5868 91.0551 77.6802 90.9542 77.6986 89.7536C77.7166 88.58 78.6558 88.6458 79.4496 88.6467C82.2459 88.6499 85.0423 88.6463 87.8384 88.678C88.7665 88.6886 90.0659 88.3454 90.0257 89.9399C89.9874 91.4565 88.7009 90.9133 87.7147 91.0394Z" fill="white"/>
<path d="M15.2924 14.3878C15.1467 12.7184 15.7624 12.0611 17.2522 12.1706C18.5258 12.2643 19.8109 12.2164 21.0901 12.1876C22.588 12.1539 22.5032 13.2295 22.5319 14.3076C22.5608 15.3938 22.3643 16.1176 21.0932 16.0499C19.6693 15.974 18.2378 15.9944 16.812 16.0455C15.7641 16.083 15.2136 15.6845 15.2924 14.3878Z" fill="white"/>
<path d="M32.0514 16.3909C29.6996 16.4013 29.6347 16.3024 29.7104 14.2977C29.7463 13.3476 30.1372 13.0342 30.9795 13.0463C32.7937 13.0724 34.6089 13.0788 36.423 13.0467C37.6135 13.0257 37.9058 13.6871 37.9071 14.8067C37.9085 15.9119 37.5378 16.4284 36.4492 16.3956C35.0282 16.3528 33.605 16.3883 32.0514 16.3909Z" fill="white"/>
<path d="M89.6961 81.8973C87.8721 82.574 86.0957 82.2203 84.3403 82.22C83.6618 82.2198 82.9978 82.0333 82.299 82.2138C81.5534 82.4063 81.0403 82.0104 80.9145 81.2172C80.7826 80.3853 81.2335 79.929 81.9759 79.853C84.3299 79.6122 86.6972 79.6304 89.0452 79.8208C90.1497 79.9104 90.2535 80.8499 89.6961 81.8973Z" fill="white"/>
<path d="M81.5594 86.2C84.071 85.2927 86.5778 85.6533 89.059 85.6368C89.7578 85.6321 90.0813 86.1964 90.1089 86.8901C90.1398 87.6685 89.6483 88.0487 89.0056 88.0622C86.8031 88.1083 84.5972 88.1505 82.3971 88.0657C81.3839 88.0267 81.0901 87.2907 81.5594 86.2Z" fill="white"/>
<path d="M86.3676 67.402C85.1061 67.4631 83.9788 67.5604 82.8507 67.5707C81.9862 67.5786 81.0361 67.4576 81.0389 66.2601C81.0416 65.1624 81.9024 65.0263 82.7437 65.0256C84.7117 65.0241 86.6798 65.0371 88.6476 65.0158C89.5421 65.0061 90.1019 65.4107 90.0889 66.3601C90.0767 67.2523 89.3997 67.381 88.7154 67.3889C87.9775 67.3974 87.2394 67.3971 86.3676 67.402Z" fill="white"/>
<path d="M34.5191 5.01881C35.0917 5.04437 35.5378 5.03258 35.971 5.10562C36.4762 5.19077 36.7129 5.56863 36.7308 6.09673C36.7513 6.69935 36.4795 7.17181 35.923 7.20339C34.3576 7.29226 32.7843 7.38409 31.2249 7.10537C30.8111 7.0314 30.4357 6.75087 30.4183 6.3093C30.3675 5.02227 30.3578 3.72996 30.4128 2.44355C30.4341 1.94519 30.8149 1.60914 31.3305 1.62729C31.7728 1.64285 32.035 1.96192 32.1732 2.37693C32.2367 2.56773 32.2863 2.79012 32.2577 2.98438C31.9892 4.8073 32.8852 5.25975 34.5191 5.01881Z" fill="white"/>
<path d="M84.4324 41.4295C83.37 41.3819 82.4402 41.2966 81.5101 41.2913C80.4621 41.2853 79.9786 40.7746 80.003 39.6795C80.0249 38.6989 79.994 37.7164 80.0381 36.7373C80.0649 36.1444 80.2579 35.5751 80.9378 35.526C81.6166 35.4771 81.8086 35.9942 81.9775 36.5898C82.2294 37.4784 81.7456 38.6504 82.4466 39.2421C83.1241 39.8141 84.1524 39.2847 85.0207 39.3577C85.581 39.4048 86.3288 39.3655 86.3018 40.2634C86.2657 41.4633 85.329 41.3398 84.4324 41.4295Z" fill="white"/>
<path d="M19.4779 9.4007C20.7509 9.43063 21.8794 9.43584 23.005 9.49879C23.5865 9.53131 24.0833 9.8106 24.1112 10.5078C24.1402 11.2302 23.611 11.5473 23.057 11.5559C20.7049 11.5922 18.3517 11.5734 15.9994 11.5362C15.4834 11.5281 15.041 11.2703 14.9918 10.6226C14.9366 9.89693 15.3749 9.54526 15.9543 9.50012C17.0765 9.41266 18.2058 9.42747 19.4779 9.4007Z" fill="white"/>
<path d="M90.1007 63.5051C89.845 64.3315 89.3085 64.5195 88.6801 64.5238C86.9635 64.5355 85.2468 64.5484 83.5302 64.5376C82.7837 64.533 82.1348 64.2988 82.0821 63.3637C82.0273 62.392 82.6989 62.1237 83.4265 62.0908C85.1896 62.0109 86.9552 61.9854 88.7201 61.9607C89.6067 61.9483 90.0824 62.4344 90.1007 63.5051Z" fill="white"/>
<path d="M82.9104 53.7009C81.4957 53.7104 80.2163 53.702 78.9371 53.7086C78.1207 53.7127 77.6469 53.3759 77.5958 52.4473C77.5334 51.3114 77.3475 50.1805 77.5076 49.0396C77.5836 48.4979 77.7559 48.0101 78.3677 47.9493C78.9872 47.8878 79.4038 48.3622 79.3511 48.862C79.0486 51.7322 80.6987 51.8735 82.6945 51.6642C83.2626 51.6046 83.8109 51.8073 83.9226 52.5078C84.0311 53.1882 83.6834 53.5788 82.9104 53.7009Z" fill="white"/>
<path d="M90.137 72.2405C89.9741 73.0328 89.5402 73.2822 88.9362 73.2848C86.9831 73.2933 85.0299 73.2975 83.0767 73.3123C82.3323 73.3179 81.8274 73.0309 81.8252 72.1719C81.8231 71.3431 82.2887 70.9595 83.0364 70.952C84.9921 70.9323 86.948 70.9347 88.9038 70.9218C89.669 70.9168 90.0963 71.288 90.137 72.2405Z" fill="white"/>
<path d="M90.0056 95.2185C90.2741 96.3967 89.8426 96.9172 88.8302 96.9236C86.8625 96.9362 84.8946 96.9418 82.9268 96.9395C82.3416 96.9388 81.8433 96.7788 81.7676 96.0364C81.6933 95.3079 81.9828 94.705 82.6641 94.6782C84.921 94.5894 87.1819 94.5983 89.441 94.6108C89.6146 94.6118 89.7865 94.9336 90.0056 95.2185Z" fill="white"/>
<path d="M82.0248 77.9136C82.2146 76.9284 82.8554 76.8602 83.5148 76.8546C85.1809 76.8406 86.8472 76.8516 88.5132 76.8299C89.3519 76.819 90.0307 77.0935 90.0664 78.0614C90.106 79.1361 89.3296 79.2291 88.5342 79.2239C86.8191 79.2125 85.1038 79.2109 83.3888 79.2239C82.6012 79.2298 82.0308 78.9999 82.0248 77.9136Z" fill="white"/>
<path d="M42.0318 11.3074C41.1512 10.1377 41.3132 9.51039 42.5368 9.44975C44.5449 9.35019 46.5618 9.41005 48.5737 9.4587C49.1152 9.4718 49.6854 9.67336 49.6766 10.4374C49.6683 11.1597 49.2054 11.3741 48.6 11.4387C46.4444 11.6686 44.2925 11.7356 42.0318 11.3074Z" fill="white"/>
<path d="M8.59178 40.5725C8.63288 41.5097 8.18023 41.825 7.49932 41.8308C5.52994 41.8476 3.56036 41.8481 1.59095 41.8376C0.976119 41.8343 0.542898 41.539 0.497932 40.8376C0.458865 40.2282 0.765052 39.7907 1.31809 39.7355C3.62133 39.5057 5.92965 39.367 8.2056 39.9794C8.35421 40.0194 8.44916 40.2803 8.59178 40.5725Z" fill="white"/>
<path d="M8.81343 23.4197C9.54096 23.4327 10.1345 23.4005 10.7161 23.4738C11.3383 23.5523 11.6614 23.9845 11.6421 24.6562C11.6241 25.2823 11.2692 25.6343 10.7104 25.6376C8.74594 25.6491 6.78048 25.6431 4.81703 25.5836C4.24925 25.5664 3.74916 25.2446 3.76447 24.5268C3.78222 23.6948 4.33766 23.5635 4.99266 23.5504C6.22017 23.5259 7.44704 23.4661 8.81343 23.4197Z" fill="white"/>
<path d="M52.4986 8.69947C51.7889 7.53292 52.3464 7.01006 53.289 6.96384C55.1055 6.87479 56.929 6.90918 58.7487 6.94437C59.3136 6.95529 59.8459 7.22284 59.8954 7.92418C59.9456 8.63516 59.4718 8.99758 58.8845 9.0037C56.7838 9.02555 54.6665 9.44189 52.4986 8.69947Z" fill="white"/>
<path d="M47.4359 16.8631C45.9757 16.8646 44.6503 16.8752 43.3255 16.8517C42.6087 16.8391 41.8703 16.7396 41.8829 15.7307C41.8957 14.7162 42.665 14.6559 43.3618 14.6433C44.9319 14.6149 46.503 14.6508 48.0733 14.6277C48.8557 14.6161 49.5001 14.8425 49.5394 15.7506C49.5745 16.5626 48.9074 16.6857 48.302 16.7709C48.0589 16.8051 47.8146 16.8293 47.4359 16.8631Z" fill="white"/>
<path d="M33.0697 12.0347C31.5559 12.0661 30.1852 12.1334 28.8158 12.1128C28.1289 12.1024 27.3605 12.0103 27.4081 10.9674C27.4504 10.0393 28.1297 9.97563 28.7898 9.97082C30.6511 9.95723 32.5125 9.96124 34.3738 9.96208C35.1159 9.96241 35.7997 10.0915 35.7784 11.0982C35.7575 12.09 35.0227 12.0037 34.3888 12.0261C33.9973 12.0399 33.6051 12.0322 33.0697 12.0347Z" fill="white"/>
<path d="M86.8608 91.5267C87.6393 91.5392 88.2781 91.5295 88.914 91.57C89.584 91.6127 90.0322 91.9781 90.0788 92.7147C90.126 93.4616 89.7227 93.8716 89.0472 93.969C87.5333 94.1874 86.0107 94.1369 84.4963 94.0099C83.819 93.9531 83.4907 93.4532 83.5193 92.7084C83.5459 92.0165 83.9088 91.647 84.5152 91.5916C85.2464 91.5248 85.9847 91.5445 86.8608 91.5267Z" fill="white"/>
<path d="M84.4201 73.8973C85.9228 73.841 87.2998 73.8 88.6767 73.7959C89.5369 73.7933 90.1276 74.2147 90.1065 75.1812C90.0855 76.1385 89.3931 76.3272 88.6505 76.3327C87.4203 76.3418 86.1897 76.3368 84.9598 76.3102C84.3936 76.2979 83.8631 76.1394 83.6973 75.4633C83.5372 74.8108 83.579 74.2168 84.4201 73.8973Z" fill="white"/>
<path d="M1.83986 37.0695C3.29606 37.0666 4.61522 37.0492 5.93373 37.0725C6.61652 37.0846 7.2678 37.3098 7.27484 38.1627C7.28199 39.0267 6.60413 39.2451 5.94056 39.2667C4.57412 39.3111 3.20528 39.3144 1.83836 39.2852C1.06829 39.2687 0.0770024 39.3264 0.00428926 38.2303C-0.0744407 37.0433 0.945529 37.1635 1.83986 37.0695Z" fill="white"/>
<path d="M85.5101 36.8366C86.8275 36.83 88.0104 36.7936 89.1892 36.8515C89.8047 36.8818 90.4185 37.1584 90.3696 37.9521C90.3247 38.6831 89.7795 39.0121 89.1255 39.0169C87.5012 39.029 85.8762 39.0179 84.2524 38.9788C83.6472 38.9642 83.0189 38.8466 82.9934 37.9993C82.9674 37.1342 83.5824 37.0435 84.1997 36.9821C84.5917 36.9432 84.9826 36.8918 85.5101 36.8366Z" fill="white"/>
<path d="M77.5602 23.0079C77.5233 22.1196 77.9197 21.7654 78.621 21.7628C80.5761 21.7556 82.5313 21.7546 84.4864 21.7576C85.084 21.7585 85.5798 21.9664 85.607 22.6853C85.6296 23.2844 85.2481 23.7082 84.7237 23.7359C82.5785 23.849 80.4284 23.8953 78.2883 23.6442C78.0435 23.6155 77.8284 23.3059 77.5602 23.0079Z" fill="white"/>
<path d="M53.2003 3.66967C52.4984 3.47979 52.0718 3.1627 52.2117 2.44565C52.3317 1.83037 52.8149 1.64274 53.3322 1.63804C54.9071 1.62371 56.483 1.61594 58.0568 1.66611C58.7368 1.6878 59.3817 1.98539 59.3508 2.84051C59.3212 3.66042 58.6179 3.77103 58.0363 3.77669C56.4639 3.79201 54.8908 3.72879 53.2003 3.66967Z" fill="white"/>
<path d="M89.5206 70.1987C87.9559 70.6652 86.4786 70.4421 85.0129 70.4536C84.2902 70.4592 83.9564 69.9623 83.9283 69.2548C83.9023 68.5968 84.2268 68.1822 84.8547 68.0663C86.2682 67.8052 87.7006 67.819 89.1117 67.9654C90.1908 68.0772 90.359 68.9486 89.5206 70.1987Z" fill="white"/>
<path d="M7.38916 48.5236C9.1566 48.1218 10.828 48.3238 12.4912 48.3068C13.1943 48.2997 13.8088 48.6587 13.7911 49.4685C13.7731 50.2966 13.1101 50.5443 12.4229 50.553C10.9511 50.5717 9.47578 50.6121 8.00768 50.5297C6.77231 50.4604 6.54324 49.7626 7.38916 48.5236Z" fill="white"/>
<path d="M56.1177 4.13232C56.8457 4.14673 57.4332 4.14164 58.0182 4.17882C58.6842 4.22114 59.1426 4.53406 59.1382 5.31501C59.1342 6.0397 58.6799 6.32227 58.0863 6.33283C56.4737 6.36152 54.86 6.36998 53.2478 6.33422C52.6759 6.32152 52.1786 6.05748 52.1876 5.32112C52.1959 4.63914 52.6252 4.25219 53.1955 4.19712C54.1165 4.10818 55.0487 4.14676 56.1177 4.13232Z" fill="white"/>
<path d="M6.7902 47.265C6.65079 46.3443 6.93143 45.779 7.73383 45.7563C9.34992 45.7105 10.9679 45.7295 12.5851 45.7404C13.1504 45.7443 13.5149 46.073 13.5832 46.6651C13.6421 47.1759 13.4278 47.6948 12.9556 47.7532C10.9032 48.0071 8.82028 48.5391 6.7902 47.265Z" fill="white"/>
<path d="M34.9695 2.50558C36.475 2.50773 37.8473 2.49655 39.2188 2.52558C39.838 2.53868 40.4469 2.7076 40.4772 3.51484C40.5101 4.38925 39.8799 4.69755 39.2113 4.69486C37.499 4.68795 35.7871 4.5866 34.075 4.52296C33.5416 4.50314 33.256 4.21068 33.2626 3.65044C33.2761 2.50229 34.1155 2.59085 34.9695 2.50558Z" fill="white"/>
<path d="M84.1704 82.9333C85.7944 82.8268 87.3079 82.7901 88.8214 82.7527C89.6633 82.7318 90.1287 83.1619 90.1012 84.0495C90.0737 84.9332 89.4723 85.1123 88.7688 85.1104C87.5946 85.1072 86.4201 85.128 85.2463 85.1041C83.6429 85.0716 83.4074 84.6392 84.1704 82.9333Z" fill="white"/>
<path d="M90.0392 35.2718C89.8978 36.0908 89.4059 36.2568 88.8226 36.2611C87.1994 36.273 85.5761 36.2762 83.9529 36.2853C83.3377 36.2887 82.8725 36.067 82.8327 35.3474C82.7882 34.5448 83.269 34.2365 83.9465 34.2303C85.5696 34.2156 87.1929 34.2294 88.8162 34.2303C89.4296 34.2307 89.8467 34.5157 90.0392 35.2718Z" fill="white"/>
<path d="M85.2415 49.105C86.1379 49.2998 87.4432 48.6876 87.429 50.1212C87.4158 51.4548 86.184 51.1316 85.3548 51.163C84.1316 51.2093 82.9059 51.1877 81.6812 51.1879C80.9989 51.188 80.3517 51.0884 80.3684 50.1469C80.3829 49.3249 80.9499 49.159 81.5901 49.1475C82.7647 49.1263 83.9394 49.1147 85.2415 49.105Z" fill="white"/>
<path d="M7.4263 28.8812C8.28737 28.8824 9.02077 28.8935 9.75422 28.8997C10.3556 28.9048 10.8597 29.109 10.8945 29.8157C10.9334 30.6041 10.3968 30.9089 9.75052 30.9196C8.13708 30.9466 6.52231 30.9453 4.90918 30.9057C4.25577 30.8896 3.75088 30.529 3.77915 29.7656C3.80721 29.0079 4.3821 28.9304 4.95077 28.9213C5.73337 28.9088 6.51601 28.8996 7.4263 28.8812Z" fill="white"/>
<path d="M83.2939 48.5811C82.4249 48.529 81.688 48.4803 80.9521 48.4185C80.3802 48.3706 80.0348 48.062 80.0319 47.4316C80.0294 46.8837 80.3452 46.5009 80.813 46.449C82.4792 46.2642 84.1552 46.2716 85.8208 46.4546C86.313 46.5086 86.5643 46.9742 86.5129 47.494C86.4618 48.0119 86.1439 48.3336 85.6347 48.3845C84.8994 48.4579 84.1626 48.5149 83.2939 48.5811Z" fill="white"/>
<path d="M77.6806 69.175C77.8248 68.2422 78.3753 67.9415 79.0579 67.9082C79.9852 67.8631 80.9162 67.875 81.8448 67.8957C82.5834 67.9121 83.0437 68.2825 83.0677 69.1172C83.0913 69.9414 82.684 70.3817 81.9329 70.4216C80.9564 70.4735 79.9771 70.4767 78.9989 70.4779C78.2589 70.4788 77.8128 70.0781 77.6806 69.175Z" fill="white"/>
<path d="M44.8868 11.9272C45.6586 11.9702 46.2958 11.996 46.9296 12.0598C47.4966 12.1169 47.831 12.4746 47.8514 13.0718C47.8725 13.6902 47.5073 14.0781 46.9617 14.0993C45.5407 14.1545 44.1166 14.1563 42.6946 14.1311C42.142 14.1213 41.7655 13.7333 41.7105 13.1598C41.6424 12.4498 42.1205 12.1297 42.6979 12.0511C43.376 11.9588 44.066 11.9638 44.8868 11.9272Z" fill="white"/>
<path d="M78.2639 76.1587C77.3044 74.6988 77.6804 73.8226 79.1833 73.775C80.0118 73.7488 80.8454 73.7982 81.673 73.8644C82.4559 73.927 82.7706 74.4809 82.746 75.2434C82.7217 75.9983 82.2525 76.3552 81.586 76.3535C80.5159 76.3507 79.4364 76.5238 78.2639 76.1587Z" fill="white"/>
<path d="M81.3665 94.0012C80.4543 94.0233 79.6663 94.0712 78.8833 94.0248C78.1336 93.9803 77.7132 93.4833 77.7144 92.7007C77.7157 91.9389 78.2248 91.5965 78.8695 91.5478C79.6519 91.4886 80.4406 91.5067 81.2263 91.517C81.914 91.5261 82.5123 91.7267 82.6518 92.5592C82.8111 93.5093 82.2657 93.8579 81.3665 94.0012Z" fill="white"/>
<path d="M80.3707 85.136C79.7421 85.1349 79.2529 85.1364 78.764 85.1226C78.04 85.1021 77.6757 84.662 77.697 83.9408C77.7192 83.1877 78.0611 82.6508 78.8658 82.6634C79.7947 82.6779 80.723 82.7377 81.6519 82.7508C82.4481 82.762 82.808 83.1817 82.8081 83.9971C82.8082 84.7916 82.3554 85.08 81.6838 85.1137C81.2932 85.1333 80.9015 85.1266 80.3707 85.136Z" fill="white"/>
<path d="M33.8064 0.0371695C35.2656 0.00850284 36.5928 -0.00676563 37.9197 0.0029007C38.5152 0.00723059 39.0116 0.22495 39.031 0.956408C39.05 1.67145 38.5919 1.98613 37.9913 2.00111C36.7145 2.03294 35.4359 2.02552 34.1591 1.99225C33.7073 1.98049 33.2688 1.79338 33.1046 1.28844C32.9161 0.708493 33.1142 0.279862 33.8064 0.0371695Z" fill="white"/>
<path d="M8.14796 26.225C9.30196 26.1783 10.3317 26.1329 11.3596 26.1613C12.0548 26.1805 12.6668 26.4951 12.6514 27.3282C12.6376 28.0774 12.062 28.3593 11.4198 28.384C10.4896 28.4197 9.55737 28.4229 8.6265 28.4067C8.1137 28.3978 7.64032 28.2255 7.44605 27.6594C7.2272 27.0217 7.471 26.5612 8.14796 26.225Z" fill="white"/>
<path d="M2.17201 42.1679C2.886 42.1669 3.4759 42.1467 4.0592 42.2027C4.59175 42.2539 5.00667 42.5293 5.01819 43.167C5.0304 43.8435 4.67168 44.2545 4.04836 44.2947C3.16867 44.3515 2.28416 44.3429 1.40198 44.3339C0.739017 44.3271 0.22252 44.0455 0.221194 43.265C0.219976 42.5483 0.727236 42.3338 1.31415 42.27C1.55807 42.2436 1.80143 42.2114 2.17201 42.1679Z" fill="white"/>
<path d="M79.6925 64.5797C79.1364 64.5278 78.6792 64.5446 78.28 64.3925C77.8414 64.2253 77.6409 63.7935 77.6343 63.2807C77.6277 62.7648 77.8124 62.3676 78.2747 62.1799C79.0273 61.8743 79.8151 61.8517 80.572 62.1084C81.1398 62.3011 81.4467 62.8308 81.3544 63.44C81.2222 64.3129 80.527 64.4891 79.6925 64.5797Z" fill="white"/>
<path d="M79.6513 76.7141C80.5211 76.9209 81.0166 77.3799 80.9745 78.2283C80.9367 78.9903 80.3238 79.2047 79.7421 79.3382C78.9749 79.5143 78.2374 79.3553 77.7891 78.6425C77.1792 77.6727 77.9432 76.8372 79.6513 76.7141Z" fill="white"/>
<path d="M77.8676 71.4879C78.5334 70.7095 79.311 70.8916 80.0211 70.9577C80.954 71.0446 81.3756 72.1747 80.7472 72.8981C80.0853 73.66 79.1745 73.4368 78.3962 73.2249C77.655 73.0232 77.5029 72.3449 77.8676 71.4879Z" fill="white"/>
<path d="M79.4476 94.3784C80.2713 94.5376 80.6833 94.9657 80.716 95.7449C80.7373 96.2547 80.5567 96.6913 80.0841 96.8317C79.4229 97.0281 78.7284 97.0744 78.1221 96.6362C77.7323 96.3544 77.5544 95.9129 77.7109 95.4244C77.9678 94.6224 78.6243 94.4402 79.4476 94.3784Z" fill="white"/>
<path d="M77.901 86.1706C78.5711 85.3889 79.2692 85.3688 79.9081 85.9251C80.4328 86.382 80.3893 87.0447 80.0274 87.601C79.6535 88.1758 79.0888 88.3237 78.4803 88.019C77.764 87.6602 77.4365 87.1107 77.901 86.1706Z" fill="white"/>
<path d="M78.6383 67.5541C77.9081 67.2658 77.5755 66.8056 77.6514 66.0858C77.705 65.5769 77.9588 65.1976 78.4418 65.0817C79.139 64.9144 79.7772 65.0554 79.9547 65.8837C80.1666 66.8728 79.7439 67.4769 78.6383 67.5541Z" fill="white"/>
<path d="M80.0695 80.9809C79.8674 81.9253 79.383 82.3739 78.5645 82.1817C77.9829 82.0451 77.6433 81.5949 77.6673 80.934C77.6887 80.3427 78.0265 79.9312 78.5396 79.8223C79.3181 79.6569 79.8826 79.9878 80.0695 80.9809Z" fill="white"/>
</g>
<defs>
<clipPath id="clip0_8_193">
<rect width="96" height="100" fill="white"/>
</clipPath>
</defs>
</svg>
