<svg width="223" height="100" viewBox="0 0 223 100" fill="none" xmlns="http://www.w3.org/2000/svg">
<g clip-path="url(#clip0_8_2)">
<path d="M174.013 57.6714C173.549 58.4677 173.775 59.3771 173.766 60.256C173.737 63.0345 173.729 65.8142 173.78 68.5921C173.804 69.9226 173.274 70.4815 172.011 70.4065C171.124 70.3539 170.232 70.3667 169.343 70.386C168.184 70.4111 167.767 69.7475 167.765 68.6456C167.756 61.394 167.734 54.1424 167.738 46.8908C167.738 44.9693 168.078 44.6476 169.896 44.615C174.971 44.5242 174.986 44.5181 176.815 49.3426C177.993 52.4515 179.117 55.583 180.273 58.7009C180.517 59.3582 180.649 60.0818 181.334 60.7338C182.325 58.1243 183.281 55.6104 184.233 53.0948C185.103 50.7985 186 48.5128 186.819 46.1976C187.219 45.0695 187.882 44.5594 189.042 44.6104C190.324 44.6669 191.611 44.6354 192.896 44.6188C193.971 44.605 194.545 45.0335 194.541 46.2535C194.519 53.7667 194.52 61.2799 194.533 68.7931C194.535 69.8943 194.09 70.4141 193.03 70.3924C192.141 70.3741 191.248 70.3456 190.362 70.4022C188.932 70.4935 188.426 69.7671 188.439 68.3604C188.47 64.8113 188.449 61.2617 188.263 57.6452C187.112 60.6708 185.96 63.6962 184.811 66.7224C184.684 67.0569 184.574 67.3985 184.446 67.7326C183.45 70.3349 182.107 71.0398 179.538 70.3426C178.67 70.1072 178.482 69.3316 178.212 68.6261C176.824 64.9955 175.448 61.3598 174.013 57.6714Z" fill="white"/>
<path d="M220.201 67.5898C223.048 70.7966 222.623 70.3073 219.886 72.5389C218.236 73.8837 218.183 73.9684 216.833 72.2353C215.73 70.8196 214.725 70.3776 212.839 70.8958C204.755 73.1176 196.969 66.4382 196.998 57.5305C197.022 50.3315 201.531 44.9794 208.591 44.0887C214.031 43.4024 220.516 46.6999 222.484 53.886C223.645 58.1223 222.795 62.0223 220.458 65.6276C220.09 66.1954 219.438 66.733 220.201 67.5898ZM203.59 53.7621C202.242 56.899 202.45 59.9048 204.553 62.578C206.007 64.4252 207.924 65.4509 210.412 65.224C210.036 63.9521 208.23 63.4835 208.823 62.1906C209.275 61.2077 210.416 60.5651 211.259 59.7812C212.049 59.0474 212.75 59.1926 213.423 59.9963C214.06 60.7568 214.643 61.5906 215.605 62.1799C217.292 59.9178 217.42 57.5084 216.618 55.0102C215.68 52.0923 213.599 50.444 210.737 50.0612C207.742 49.6606 205.317 50.807 203.59 53.7621Z" fill="white"/>
<path d="M148.711 68.8111C145.091 64.8271 144.838 58.9413 148.014 55.103C150.131 52.5443 154.229 50.7467 158.712 53.4058C160.069 51.586 161.983 52.4115 163.718 52.3936C164.446 52.3861 164.598 53.1094 164.617 53.7661C164.677 55.7706 164.789 57.7758 164.772 59.7798C164.742 63.5334 164.825 67.285 164.67 71.0418C164.392 77.782 157.561 81.8747 151.109 79.1428C148.952 78.2293 147.366 76.6657 146.589 74.334C146.06 72.7465 146.32 72.3671 147.894 72.3369C148.931 72.3171 149.97 72.3638 151.007 72.3576C151.597 72.3541 152.013 72.6021 152.401 73.072C153.625 74.5554 155.162 74.9959 156.733 74.383C158.132 73.8373 159.033 72.303 159.05 70.4184C159.052 70.1218 159.011 69.8247 158.98 69.392C155.391 71.789 152.016 71.6038 148.711 68.8111ZM154.942 65.8286C157.34 65.7155 158.777 64.529 159.03 62.4531C159.311 60.1562 158.354 58.2849 156.609 57.7169C154.459 57.0174 152.404 58.0744 151.762 60.2096C150.992 62.7672 152.173 64.9971 154.942 65.8286Z" fill="white"/>
<path d="M144.109 60.1115C144.807 66.1292 141.131 70.4556 136.182 71.1154C132.337 71.6282 129.154 70.3393 126.934 66.9643C124.813 63.7383 124.808 59.314 126.932 56.2237C129.241 52.8646 132.483 51.4465 136.366 52.1563C140.558 52.9227 143.236 55.5379 144.109 60.1115ZM134.475 65.8272C135.088 65.9248 135.657 65.7089 136.203 65.4906C138.052 64.7509 139.03 62.6101 138.498 60.5518C137.978 58.5454 136.289 57.4424 134.169 57.7258C132.293 57.9766 131.025 59.6185 131.057 61.7551C131.089 63.8648 131.988 64.9992 134.475 65.8272Z" fill="white"/>
<path d="M116.171 64.6544C118.486 64.6543 120.659 64.6807 122.83 64.6431C123.885 64.6248 124.386 65.12 124.445 66.1787C124.451 66.2813 124.454 66.3841 124.46 66.4867C124.69 70.4708 124.601 70.5733 120.784 70.5783C117.279 70.5829 113.773 70.5798 110.267 70.5763C108.246 70.5743 108.027 70.3614 108.026 68.3269C108.022 61.0263 108.06 53.7255 108 46.4255C107.987 44.864 108.551 44.353 109.984 44.3252C113.838 44.2504 113.84 44.2084 113.845 48.1986C113.85 52.9285 113.849 57.6585 113.851 62.3884C113.851 64.6379 113.851 64.6379 116.171 64.6544Z" fill="white"/>
<path d="M82.5414 97.4667C86.6645 97.5257 90.6509 97.5956 94.6377 97.6378C95.3709 97.6455 95.9565 97.8454 95.9979 98.6921C96.0391 99.5322 95.4581 99.8566 94.7519 99.9228C94.2626 99.9686 93.7677 99.9578 93.2753 99.9581C71.108 99.9723 48.9406 99.9848 26.7732 99.9975C26.6254 99.9976 26.4772 100.004 26.3299 99.9952C25.5029 99.9444 24.4733 100.075 24.4575 98.8072C24.4406 97.4622 25.5082 97.6927 26.3136 97.6885C29.0229 97.6741 31.7335 97.6392 34.4412 97.7107C35.762 97.7457 36.0609 97.3443 35.6711 95.9838C33.8951 89.7857 32.2045 83.5606 30.4729 77.3484C29.7958 74.9195 29.9218 74.7345 32.4109 74.7321C34.135 74.7305 35.8598 74.7062 37.583 74.7481C38.588 74.7725 39.0082 74.3552 38.9781 73.2797C38.9245 71.3624 38.8445 69.4363 38.9561 67.5256C39.2095 63.1827 36.1772 61.1668 32.9798 60.9045C30.2867 60.6836 27.5648 60.8525 24.8557 60.8471C24.0312 60.8455 23.2826 61.1221 22.6884 61.6977C20.679 63.6442 18.2888 62.4618 16.0681 62.6005C15.5067 62.6356 15.568 61.9424 15.5553 61.4841C15.5388 60.8906 15.767 60.3361 16.3649 60.4379C19.2938 60.9366 21.7847 59.3956 24.4559 58.667C25.5287 58.3744 26.6991 58.4786 28.0245 58.3887C26.9043 56.2634 25.9103 54.1639 24.721 52.1953C23.9128 50.8575 22.5589 50.2774 21.0366 50.2482C19.9043 50.2265 18.7706 50.247 17.6394 50.2001C16.9732 50.1725 16.5058 49.8161 16.5038 49.0454C16.5021 48.3403 16.9298 48.0322 17.5433 47.9829C22.1091 47.6158 26.1552 48.0189 28.2035 53.9637C29.1156 56.6109 30.8454 58.253 33.622 58.5621C35.4509 58.7658 37.2012 59.2939 38.7373 60.8283C39.066 59.5996 38.904 58.5336 38.922 57.4926C38.9517 55.7819 38.9417 54.0702 38.9281 52.3591C38.9024 49.115 36.6747 46.6665 33.5879 46.5501C31.9152 46.487 30.2386 46.5401 28.5638 46.5322C25.2548 46.5167 22.2625 44.4729 21.1302 41.1777C19.7236 37.0844 17.1301 34.8968 12.9419 34.9247C12.6483 34.9267 12.3535 34.8711 12.0607 34.831C11.4361 34.7456 10.8549 34.5581 10.8659 33.7442C10.8781 32.8397 11.508 32.7148 12.1986 32.6586C16.9966 32.2681 20.8746 34.7435 22.7701 39.4222C24.3424 43.3027 25.6934 44.1903 29.6139 44.2007C35.1097 44.2152 34.0182 43.6234 38.9165 46.1618C38.9165 44.1088 38.822 42.1653 38.934 40.2351C39.2944 34.0244 37.1786 32.344 31.8592 32.6986C29.4592 32.8586 27.0387 32.7442 24.6249 32.5901C20.3232 32.3155 17.8486 29.7664 17.6829 25.2059C17.6189 23.4451 17.6378 21.6801 17.652 19.9173C17.667 18.0494 17.8562 17.9019 19.9338 18.228C19.9338 19.8183 19.917 21.4605 19.94 23.1021C19.9544 24.1366 19.9872 25.1746 20.0842 26.2034C20.3059 28.5566 21.8037 30.1344 24.0505 30.2039C27.25 30.3029 30.4533 30.2894 33.6549 30.2866C38.1953 30.2827 41.1485 33.3472 41.1525 38.1497C41.1621 49.7653 41.1555 61.3809 41.1596 72.9965C41.1602 74.6294 41.4868 74.9043 42.9766 74.733C43.6407 74.6566 43.959 74.3544 43.9572 73.6565C43.9557 73.0343 43.968 72.4121 43.9764 71.79C44.1537 58.6745 44.0806 45.5592 43.9896 32.4435C43.968 29.3218 42.5873 27.2646 39.9838 25.9715C38.8291 25.398 37.6275 24.9172 36.6449 24.0056C35.4734 22.9186 34.8217 21.5866 34.7667 19.9366C34.7429 19.2246 34.9311 18.718 35.7191 18.6716C36.4127 18.6306 36.9165 18.8688 36.9437 19.6585C37.0109 21.6122 38.1759 22.6207 39.7189 23.2944C41.1692 23.9277 42.5333 24.7148 43.9727 25.9637C43.9727 24.1373 43.9616 22.6052 43.9786 21.0735C43.9849 20.5075 44.0019 19.9297 44.1146 19.3801C44.2454 18.7418 44.7025 18.4149 45.3228 18.503C45.8974 18.5845 46.1466 19.0248 46.157 19.6094C46.1707 20.3869 46.1694 21.1647 46.1711 21.9424C46.1785 25.4167 46.1825 28.891 46.1934 32.3652C46.1954 32.9811 46.1413 33.6131 46.6163 34.3814C48.1925 32.4423 50.4422 31.7612 52.404 30.5558C53.7294 29.7414 54.3715 28.3414 54.3496 26.6111C54.2938 22.2042 54.3179 17.7961 54.3114 13.3885C54.3107 12.9219 54.3158 12.4552 54.3244 11.9887C54.3411 11.0882 54.8084 10.6546 55.6351 10.6828C56.4434 10.7104 56.5305 11.3305 56.5307 12.002C56.5317 15.0096 56.5401 18.0172 56.5407 21.0248C56.541 22.6323 56.4742 24.2422 56.5372 25.8468C56.6877 29.6764 54.8782 32.1177 51.6692 33.5509C50.3777 34.1277 49.214 34.8245 48.2837 35.9602C47.0093 37.5158 46.3352 39.2494 46.3381 41.3388C46.3492 49.5301 46.4998 57.7218 46.2331 65.9131C46.154 68.3423 46.3322 70.7797 46.344 73.2136C46.3489 74.2192 46.6296 74.741 47.6951 74.7464C48.8306 74.7521 48.9461 74.1134 48.9443 73.1582C48.9266 63.8762 48.9316 54.5941 48.9348 45.312C48.9361 41.7752 50.0762 40.0196 53.2672 38.7426C53.881 38.497 54.2018 38.1358 54.4354 37.4982C55.8294 33.6931 57.8227 32.2993 61.6167 32.3994C63.8464 32.4582 65.1962 30.9855 65.4832 28.0883C65.6362 26.5446 65.7141 24.9915 65.7839 23.4406C65.818 22.6838 65.9426 22.1141 66.8335 22.1092C67.6815 22.1046 67.9747 22.6145 67.9734 23.3855C67.9693 25.8796 67.8477 28.3716 67.0097 30.7331C65.9868 33.6156 64.1515 34.7671 60.898 34.7105C58.4705 34.6683 57.0061 35.8867 56.8221 38.1202C57.3539 38.4957 57.9592 38.3194 58.5332 38.3326C60.9925 38.3889 63.4743 38.5369 65.9068 38.4299C69.591 38.2679 73.0378 36.9502 75.7458 34.0888C76.4887 33.3038 76.9489 32.3185 77.1429 31.2207C77.3027 30.3158 77.7069 29.7933 78.6567 30.0414C79.7307 30.3218 79.3374 31.1871 79.187 31.8109C78.5621 34.4023 77.0818 36.4291 74.9125 37.7143C71.9401 39.4753 68.81 40.8021 65.2622 40.6769C62.2114 40.5692 59.1545 40.6461 56.1003 40.6466C52.3449 40.6472 50.7353 42.6476 51.3404 46.6282C55.1909 44.0202 59.452 45.3294 63.5531 45.224C64.6228 45.1965 65.6256 45.9935 66.3441 46.8452C67.1096 47.7527 67.9788 48.0671 69.0696 48.0639C70.4961 48.0596 71.9226 48.1332 73.3494 48.1555C73.9502 48.1649 74.445 48.2991 74.4974 49.0492C74.5495 49.7933 74.1972 50.2684 73.5038 50.3345C71.2447 50.5496 68.9824 50.5652 66.7224 50.3231C66.046 50.2506 65.7355 49.703 65.4039 49.1859C64.629 47.9779 63.5578 47.358 62.1654 47.3613C60.0474 47.3664 57.9275 47.3054 55.812 47.3825C52.9798 47.4856 51.1847 49.5022 51.1753 52.4753C51.1666 55.2014 51.1734 57.9276 51.1734 61.0754C54.3345 58.4265 57.7249 59.2291 60.9632 59.2013C69.8789 59.1248 78.7955 59.1593 87.7118 59.1732C88.6892 59.1748 90.1222 58.8484 90.0681 60.464C90.0156 62.0336 88.5839 61.4693 87.7118 61.4721C77.4249 61.5052 67.1367 61.5805 56.8515 61.4365C53.6134 61.3912 50.7982 63.7966 51.1533 67.5072C51.3351 69.4067 51.2256 71.3423 51.1739 73.2593C51.1452 74.3251 51.5121 74.7591 52.54 74.7345C54.4601 74.6886 56.3821 74.7125 58.3031 74.7326C60.1048 74.7514 60.2957 75.0737 59.7903 76.8429C57.9766 83.1922 56.1782 89.5464 54.3932 95.9047C53.9344 97.5387 54.0491 97.6781 55.6877 97.6789C62.6827 97.6821 69.6779 97.6886 76.6729 97.6619C78.5837 97.6546 80.4942 97.5358 82.5414 97.4667Z" fill="white"/>
<path d="M61.9451 13.1114C62.3936 12.4974 62.9192 12.4238 63.4763 12.4249C65.5909 12.4291 67.7057 12.4443 69.8201 12.4222C70.8805 12.4111 71.3268 12.9155 71.3174 14.0255C71.3056 15.4212 71.3828 16.8176 71.4057 18.214C71.4225 19.2292 70.9457 19.7482 69.9652 19.7389C67.7525 19.718 65.5394 19.7145 63.3269 19.6806C62.4078 19.6666 61.811 19.1691 61.7796 18.1762C61.7274 16.5284 61.5227 14.8726 61.9451 13.1114Z" fill="white"/>
<path d="M9.40712 63.8299C9.11595 63.8306 8.96836 63.833 8.82082 63.8312C4.17928 63.7734 4.97923 64.4339 4.89486 59.4142C4.88106 58.593 5.15462 58.152 5.99245 58.1583C7.8122 58.1721 9.63217 58.1501 11.4521 58.1501C11.6466 58.1501 11.9211 58.1204 12.0236 58.2364C13.1889 59.556 12.5154 61.1536 12.5707 62.6373C12.6071 63.6127 11.9258 63.8 11.1738 63.8146C10.6329 63.8251 10.0918 63.8249 9.40712 63.8299Z" fill="white"/>
<path d="M80.057 27.8833C78.8798 27.8752 77.8478 27.8635 76.8158 27.8606C76.2443 27.859 75.6628 27.7657 75.4884 27.12C75.0654 25.5533 75.1994 23.9484 75.3764 22.3592C75.4211 21.9573 75.7878 21.8002 76.1701 21.838C76.6451 21.8849 76.9325 22.2632 76.8792 22.6761C76.6172 24.7058 77.8403 24.675 79.1585 24.5986C79.8444 24.5589 80.5369 24.6325 81.2217 24.5827C82.3941 24.4973 82.7706 25.1097 82.7867 26.2575C82.8032 27.4327 82.4045 28.0208 81.2336 27.8902C80.8934 27.8522 80.5461 27.8838 80.057 27.8833Z" fill="white"/>
<path d="M87.7147 91.0394C84.8742 91.0433 82.176 91.0441 79.4779 91.0524C78.5868 91.0551 77.6802 90.9542 77.6986 89.7536C77.7166 88.58 78.6558 88.6458 79.4496 88.6467C82.2459 88.6499 85.0423 88.6463 87.8384 88.678C88.7665 88.6886 90.0659 88.3454 90.0257 89.9399C89.9874 91.4565 88.7009 90.9133 87.7147 91.0394Z" fill="white"/>
<path d="M15.2924 14.3879C15.1467 12.7185 15.7624 12.0612 17.2522 12.1707C18.5258 12.2644 19.8109 12.2164 21.0901 12.1876C22.588 12.1539 22.5032 13.2295 22.5319 14.3077C22.5608 15.3939 22.3643 16.1177 21.0932 16.0499C19.6693 15.974 18.2378 15.9944 16.812 16.0455C15.7641 16.0831 15.2136 15.6846 15.2924 14.3879Z" fill="white"/>
<path d="M32.0514 16.3908C29.6996 16.4012 29.6347 16.3023 29.7104 14.2976C29.7463 13.3476 30.1372 13.0341 30.9795 13.0462C32.7937 13.0723 34.6089 13.0787 36.423 13.0467C37.6135 13.0256 37.9058 13.687 37.9071 14.8067C37.9085 15.9118 37.5378 16.4283 36.4492 16.3956C35.0282 16.3528 33.605 16.3882 32.0514 16.3908Z" fill="white"/>
<path d="M89.6961 81.8973C87.8721 82.574 86.0957 82.2203 84.3403 82.22C83.6618 82.2198 82.9978 82.0333 82.299 82.2138C81.5534 82.4063 81.0403 82.0104 80.9145 81.2172C80.7826 80.3853 81.2335 79.929 81.9759 79.853C84.3299 79.6122 86.6972 79.6304 89.0452 79.8208C90.1497 79.9104 90.2535 80.8499 89.6961 81.8973Z" fill="white"/>
<path d="M81.5594 86.2C84.071 85.2927 86.5778 85.6533 89.059 85.6368C89.7578 85.6321 90.0813 86.1964 90.1089 86.8901C90.1398 87.6685 89.6483 88.0487 89.0056 88.0622C86.8031 88.1083 84.5972 88.1505 82.3971 88.0657C81.3839 88.0267 81.0901 87.2907 81.5594 86.2Z" fill="white"/>
<path d="M86.3676 67.402C85.1061 67.4631 83.9788 67.5604 82.8507 67.5707C81.9862 67.5786 81.0361 67.4576 81.0389 66.2601C81.0416 65.1624 81.9024 65.0263 82.7437 65.0256C84.7117 65.0241 86.6798 65.0371 88.6476 65.0158C89.5421 65.0061 90.1019 65.4107 90.0889 66.3601C90.0767 67.2523 89.3997 67.381 88.7154 67.3889C87.9775 67.3974 87.2394 67.3971 86.3676 67.402Z" fill="white"/>
<path d="M34.5191 5.01881C35.0917 5.04437 35.5378 5.03258 35.971 5.10562C36.4762 5.19077 36.7129 5.56863 36.7308 6.09673C36.7513 6.69935 36.4795 7.17181 35.923 7.20339C34.3576 7.29226 32.7843 7.38409 31.2249 7.10537C30.8111 7.0314 30.4357 6.75087 30.4183 6.3093C30.3675 5.02227 30.3578 3.72996 30.4128 2.44355C30.4341 1.94519 30.8149 1.60914 31.3305 1.62729C31.7728 1.64285 32.035 1.96192 32.1732 2.37693C32.2367 2.56773 32.2863 2.79012 32.2577 2.98438C31.9892 4.8073 32.8852 5.25975 34.5191 5.01881Z" fill="white"/>
<path d="M84.4324 41.4295C83.37 41.3819 82.4402 41.2966 81.5101 41.2913C80.4621 41.2853 79.9786 40.7746 80.003 39.6795C80.0249 38.6989 79.994 37.7164 80.0381 36.7373C80.0649 36.1444 80.2579 35.5751 80.9378 35.526C81.6166 35.4771 81.8086 35.9942 81.9775 36.5898C82.2294 37.4784 81.7456 38.6504 82.4466 39.2421C83.1241 39.8141 84.1524 39.2847 85.0207 39.3577C85.581 39.4048 86.3288 39.3655 86.3018 40.2634C86.2657 41.4633 85.329 41.3398 84.4324 41.4295Z" fill="white"/>
<path d="M19.4779 9.40076C20.7509 9.43069 21.8794 9.4359 23.005 9.49885C23.5865 9.53138 24.0833 9.81066 24.1112 10.5078C24.1402 11.2303 23.611 11.5474 23.057 11.5559C20.7049 11.5923 18.3517 11.5735 15.9994 11.5363C15.4834 11.5281 15.041 11.2704 14.9918 10.6227C14.9366 9.897 15.3749 9.54532 15.9543 9.50018C17.0765 9.41272 18.2058 9.42753 19.4779 9.40076Z" fill="white"/>
<path d="M90.1007 63.5051C89.845 64.3315 89.3085 64.5195 88.6801 64.5238C86.9635 64.5355 85.2468 64.5484 83.5302 64.5376C82.7837 64.533 82.1348 64.2988 82.0821 63.3637C82.0273 62.392 82.6989 62.1237 83.4265 62.0908C85.1896 62.0109 86.9552 61.9854 88.7201 61.9607C89.6067 61.9483 90.0824 62.4344 90.1007 63.5051Z" fill="white"/>
<path d="M82.9104 53.7009C81.4957 53.7104 80.2163 53.702 78.9371 53.7086C78.1207 53.7127 77.6469 53.3759 77.5958 52.4473C77.5334 51.3114 77.3475 50.1805 77.5076 49.0396C77.5836 48.4979 77.7559 48.0101 78.3677 47.9493C78.9872 47.8878 79.4038 48.3622 79.3511 48.862C79.0486 51.7322 80.6987 51.8735 82.6945 51.6642C83.2626 51.6046 83.8109 51.8073 83.9226 52.5078C84.0311 53.1882 83.6834 53.5788 82.9104 53.7009Z" fill="white"/>
<path d="M90.137 72.2405C89.9741 73.0328 89.5402 73.2822 88.9362 73.2848C86.9831 73.2933 85.0299 73.2975 83.0767 73.3123C82.3323 73.3179 81.8274 73.0309 81.8252 72.1719C81.8231 71.3431 82.2887 70.9595 83.0364 70.952C84.9921 70.9323 86.948 70.9347 88.9038 70.9218C89.669 70.9168 90.0963 71.288 90.137 72.2405Z" fill="white"/>
<path d="M90.0056 95.2185C90.2741 96.3967 89.8426 96.9172 88.8302 96.9236C86.8625 96.9362 84.8946 96.9418 82.9268 96.9395C82.3416 96.9388 81.8433 96.7788 81.7676 96.0364C81.6933 95.3079 81.9828 94.705 82.6641 94.6782C84.921 94.5894 87.1819 94.5983 89.441 94.6108C89.6146 94.6118 89.7865 94.9336 90.0056 95.2185Z" fill="white"/>
<path d="M82.0248 77.9136C82.2146 76.9284 82.8554 76.8602 83.5148 76.8546C85.1809 76.8406 86.8472 76.8516 88.5132 76.8299C89.3519 76.819 90.0307 77.0935 90.0664 78.0614C90.106 79.1361 89.3296 79.2291 88.5342 79.2239C86.8191 79.2125 85.1038 79.2109 83.3888 79.2239C82.6012 79.2298 82.0308 78.9999 82.0248 77.9136Z" fill="white"/>
<path d="M42.0318 11.3074C41.1512 10.1377 41.3132 9.51039 42.5368 9.44975C44.5449 9.35019 46.5618 9.41005 48.5737 9.4587C49.1152 9.4718 49.6854 9.67336 49.6766 10.4374C49.6683 11.1597 49.2054 11.3741 48.6 11.4387C46.4444 11.6686 44.2925 11.7356 42.0318 11.3074Z" fill="white"/>
<path d="M8.59178 40.5725C8.63288 41.5097 8.18023 41.825 7.49932 41.8308C5.52994 41.8476 3.56036 41.8481 1.59095 41.8376C0.976119 41.8343 0.542898 41.539 0.497932 40.8376C0.458865 40.2282 0.765052 39.7907 1.31809 39.7355C3.62133 39.5057 5.92965 39.367 8.2056 39.9794C8.35421 40.0194 8.44916 40.2803 8.59178 40.5725Z" fill="white"/>
<path d="M8.81343 23.4197C9.54096 23.4327 10.1345 23.4005 10.7161 23.4738C11.3383 23.5523 11.6614 23.9845 11.6421 24.6562C11.6241 25.2823 11.2692 25.6343 10.7104 25.6376C8.74594 25.6491 6.78048 25.6431 4.81703 25.5836C4.24925 25.5664 3.74916 25.2446 3.76447 24.5268C3.78222 23.6948 4.33766 23.5635 4.99266 23.5504C6.22017 23.5259 7.44704 23.4661 8.81343 23.4197Z" fill="white"/>
<path d="M52.4986 8.69947C51.7889 7.53292 52.3464 7.01006 53.289 6.96384C55.1055 6.87479 56.929 6.90918 58.7487 6.94437C59.3136 6.95529 59.8459 7.22284 59.8954 7.92418C59.9456 8.63516 59.4718 8.99758 58.8845 9.0037C56.7838 9.02555 54.6665 9.44189 52.4986 8.69947Z" fill="white"/>
<path d="M47.4359 16.863C45.9757 16.8645 44.6503 16.8751 43.3255 16.8517C42.6087 16.839 41.8703 16.7395 41.8829 15.7306C41.8957 14.7161 42.665 14.6558 43.3618 14.6432C44.9319 14.6149 46.503 14.6507 48.0733 14.6276C48.8557 14.6161 49.5001 14.8424 49.5394 15.7506C49.5745 16.5626 48.9074 16.6856 48.302 16.7708C48.0589 16.805 47.8146 16.8292 47.4359 16.863Z" fill="white"/>
<path d="M33.0697 12.0346C31.5559 12.066 30.1852 12.1333 28.8158 12.1127C28.1289 12.1024 27.3605 12.0102 27.4081 10.9674C27.4504 10.0393 28.1297 9.97557 28.7898 9.97076C30.6511 9.95717 32.5125 9.96117 34.3738 9.96202C35.1159 9.96235 35.7997 10.0915 35.7784 11.0981C35.7575 12.0899 35.0227 12.0037 34.3888 12.026C33.9973 12.0398 33.6051 12.0322 33.0697 12.0346Z" fill="white"/>
<path d="M86.8608 91.5267C87.6393 91.5392 88.2781 91.5295 88.914 91.57C89.584 91.6127 90.0322 91.9781 90.0788 92.7147C90.126 93.4616 89.7227 93.8716 89.0472 93.969C87.5333 94.1874 86.0107 94.1369 84.4963 94.0099C83.819 93.9531 83.4907 93.4532 83.5193 92.7084C83.5459 92.0165 83.9088 91.647 84.5152 91.5916C85.2464 91.5248 85.9847 91.5445 86.8608 91.5267Z" fill="white"/>
<path d="M84.4201 73.8973C85.9228 73.841 87.2998 73.8 88.6767 73.7959C89.5369 73.7933 90.1276 74.2147 90.1065 75.1812C90.0855 76.1385 89.3931 76.3272 88.6505 76.3327C87.4203 76.3418 86.1897 76.3368 84.9598 76.3102C84.3936 76.2979 83.8631 76.1394 83.6973 75.4633C83.5372 74.8108 83.579 74.2168 84.4201 73.8973Z" fill="white"/>
<path d="M1.83986 37.0695C3.29606 37.0666 4.61522 37.0492 5.93373 37.0725C6.61652 37.0846 7.2678 37.3098 7.27484 38.1627C7.28199 39.0267 6.60413 39.2451 5.94056 39.2667C4.57412 39.3111 3.20528 39.3144 1.83836 39.2852C1.06829 39.2687 0.0770024 39.3264 0.00428926 38.2303C-0.0744407 37.0433 0.945529 37.1635 1.83986 37.0695Z" fill="white"/>
<path d="M85.5101 36.8366C86.8275 36.83 88.0104 36.7936 89.1892 36.8515C89.8047 36.8818 90.4185 37.1584 90.3696 37.9521C90.3247 38.6831 89.7795 39.0121 89.1255 39.0169C87.5012 39.029 85.8762 39.0179 84.2524 38.9788C83.6472 38.9642 83.0189 38.8466 82.9934 37.9993C82.9674 37.1342 83.5824 37.0435 84.1997 36.9821C84.5917 36.9432 84.9826 36.8918 85.5101 36.8366Z" fill="white"/>
<path d="M77.5602 23.0079C77.5233 22.1196 77.9197 21.7654 78.621 21.7628C80.5761 21.7556 82.5313 21.7546 84.4864 21.7576C85.084 21.7585 85.5798 21.9664 85.607 22.6853C85.6296 23.2844 85.2481 23.7082 84.7237 23.7359C82.5785 23.849 80.4284 23.8953 78.2883 23.6442C78.0435 23.6155 77.8284 23.3059 77.5602 23.0079Z" fill="white"/>
<path d="M53.2003 3.66961C52.4984 3.47973 52.0718 3.16264 52.2117 2.44558C52.3317 1.83031 52.8149 1.64267 53.3322 1.63797C54.9071 1.62365 56.483 1.61588 58.0568 1.66605C58.7368 1.68774 59.3817 1.98532 59.3508 2.84045C59.3212 3.66036 58.6179 3.77097 58.0363 3.77663C56.4639 3.79194 54.8908 3.72873 53.2003 3.66961Z" fill="white"/>
<path d="M89.5206 70.1987C87.9559 70.6652 86.4786 70.4421 85.0129 70.4536C84.2902 70.4592 83.9564 69.9623 83.9283 69.2548C83.9023 68.5968 84.2268 68.1822 84.8547 68.0663C86.2682 67.8052 87.7006 67.819 89.1117 67.9654C90.1908 68.0772 90.359 68.9486 89.5206 70.1987Z" fill="white"/>
<path d="M7.38916 48.5236C9.1566 48.1218 10.828 48.3238 12.4912 48.3068C13.1943 48.2997 13.8088 48.6587 13.7911 49.4685C13.7731 50.2966 13.1101 50.5443 12.4229 50.553C10.9511 50.5717 9.47578 50.6121 8.00768 50.5297C6.77231 50.4604 6.54324 49.7626 7.38916 48.5236Z" fill="white"/>
<path d="M56.1177 4.13232C56.8457 4.14673 57.4332 4.14164 58.0182 4.17882C58.6842 4.22114 59.1426 4.53406 59.1382 5.31501C59.1342 6.0397 58.6799 6.32227 58.0863 6.33283C56.4737 6.36152 54.86 6.36998 53.2478 6.33422C52.6759 6.32152 52.1786 6.05748 52.1876 5.32112C52.1959 4.63914 52.6252 4.25219 53.1955 4.19712C54.1165 4.10818 55.0487 4.14676 56.1177 4.13232Z" fill="white"/>
<path d="M6.7902 47.265C6.65079 46.3443 6.93143 45.779 7.73383 45.7563C9.34992 45.7105 10.9679 45.7295 12.5851 45.7404C13.1504 45.7443 13.5149 46.073 13.5832 46.6651C13.6421 47.1759 13.4278 47.6948 12.9556 47.7532C10.9032 48.0071 8.82028 48.5391 6.7902 47.265Z" fill="white"/>
<path d="M34.9695 2.50552C36.475 2.50767 37.8473 2.49649 39.2188 2.52552C39.838 2.53862 40.4469 2.70754 40.4772 3.51478C40.5101 4.38919 39.8799 4.69749 39.2113 4.6948C37.499 4.68789 35.7871 4.58654 34.075 4.5229C33.5416 4.50308 33.256 4.21062 33.2626 3.65038C33.2761 2.50223 34.1155 2.59079 34.9695 2.50552Z" fill="white"/>
<path d="M84.1704 82.9333C85.7944 82.8268 87.3079 82.7901 88.8214 82.7527C89.6633 82.7318 90.1287 83.1619 90.1012 84.0495C90.0737 84.9332 89.4723 85.1123 88.7688 85.1104C87.5946 85.1072 86.4201 85.128 85.2463 85.1041C83.6429 85.0716 83.4074 84.6392 84.1704 82.9333Z" fill="white"/>
<path d="M90.0392 35.2718C89.8978 36.0908 89.4059 36.2568 88.8226 36.2611C87.1994 36.273 85.5761 36.2762 83.9529 36.2853C83.3377 36.2887 82.8725 36.067 82.8327 35.3474C82.7882 34.5448 83.269 34.2365 83.9465 34.2303C85.5696 34.2156 87.1929 34.2294 88.8162 34.2303C89.4296 34.2307 89.8467 34.5157 90.0392 35.2718Z" fill="white"/>
<path d="M85.2415 49.105C86.1379 49.2998 87.4432 48.6876 87.429 50.1212C87.4158 51.4548 86.184 51.1316 85.3548 51.163C84.1316 51.2093 82.9059 51.1877 81.6812 51.1879C80.9989 51.188 80.3517 51.0884 80.3684 50.1469C80.3829 49.3249 80.9499 49.159 81.5901 49.1475C82.7647 49.1263 83.9394 49.1147 85.2415 49.105Z" fill="white"/>
<path d="M7.4263 28.8812C8.28737 28.8824 9.02077 28.8935 9.75422 28.8997C10.3556 28.9048 10.8597 29.109 10.8945 29.8157C10.9334 30.6041 10.3968 30.9089 9.75052 30.9196C8.13708 30.9466 6.52231 30.9453 4.90918 30.9057C4.25577 30.8896 3.75088 30.529 3.77915 29.7656C3.80721 29.0079 4.3821 28.9304 4.95077 28.9213C5.73337 28.9088 6.51601 28.8996 7.4263 28.8812Z" fill="white"/>
<path d="M83.2939 48.5811C82.4249 48.529 81.688 48.4803 80.9521 48.4185C80.3802 48.3706 80.0348 48.062 80.0319 47.4316C80.0294 46.8837 80.3452 46.5009 80.813 46.449C82.4792 46.2642 84.1552 46.2716 85.8208 46.4546C86.313 46.5086 86.5643 46.9742 86.5129 47.494C86.4618 48.0119 86.1439 48.3336 85.6347 48.3845C84.8994 48.4579 84.1626 48.5149 83.2939 48.5811Z" fill="white"/>
<path d="M77.6806 69.175C77.8248 68.2422 78.3753 67.9415 79.0579 67.9082C79.9852 67.8631 80.9162 67.875 81.8448 67.8957C82.5834 67.9121 83.0437 68.2825 83.0677 69.1172C83.0913 69.9414 82.684 70.3817 81.9329 70.4216C80.9564 70.4735 79.9771 70.4767 78.9989 70.4779C78.2589 70.4788 77.8128 70.0781 77.6806 69.175Z" fill="white"/>
<path d="M44.8868 11.9271C45.6586 11.9701 46.2958 11.996 46.9296 12.0598C47.4966 12.1169 47.831 12.4746 47.8514 13.0718C47.8725 13.6902 47.5073 14.078 46.9617 14.0992C45.5407 14.1544 44.1166 14.1562 42.6946 14.131C42.142 14.1212 41.7655 13.7333 41.7105 13.1597C41.6424 12.4498 42.1205 12.1296 42.6979 12.051C43.376 11.9588 44.066 11.9637 44.8868 11.9271Z" fill="white"/>
<path d="M78.2639 76.1587C77.3044 74.6988 77.6804 73.8226 79.1833 73.775C80.0118 73.7488 80.8454 73.7982 81.673 73.8644C82.4559 73.927 82.7706 74.4809 82.746 75.2434C82.7217 75.9983 82.2525 76.3552 81.586 76.3535C80.5159 76.3507 79.4364 76.5238 78.2639 76.1587Z" fill="white"/>
<path d="M81.3665 94.0012C80.4543 94.0233 79.6663 94.0712 78.8833 94.0248C78.1336 93.9803 77.7132 93.4833 77.7144 92.7007C77.7157 91.9389 78.2248 91.5965 78.8695 91.5478C79.6519 91.4886 80.4406 91.5067 81.2263 91.517C81.914 91.5261 82.5123 91.7267 82.6518 92.5592C82.8111 93.5093 82.2657 93.8579 81.3665 94.0012Z" fill="white"/>
<path d="M80.3707 85.136C79.7421 85.1349 79.2529 85.1364 78.764 85.1226C78.04 85.1021 77.6757 84.662 77.697 83.9408C77.7192 83.1877 78.0611 82.6508 78.8658 82.6634C79.7947 82.6779 80.723 82.7377 81.6519 82.7508C82.4481 82.762 82.808 83.1817 82.8081 83.9971C82.8082 84.7916 82.3554 85.08 81.6838 85.1137C81.2932 85.1333 80.9015 85.1266 80.3707 85.136Z" fill="white"/>
<path d="M33.8064 0.0371695C35.2656 0.00850284 36.5928 -0.00676563 37.9197 0.0029007C38.5152 0.00723059 39.0116 0.22495 39.031 0.956408C39.05 1.67145 38.5919 1.98613 37.9913 2.00111C36.7145 2.03294 35.4359 2.02552 34.1591 1.99225C33.7073 1.98049 33.2688 1.79338 33.1046 1.28844C32.9161 0.708493 33.1142 0.279862 33.8064 0.0371695Z" fill="white"/>
<path d="M8.14796 26.225C9.30196 26.1783 10.3317 26.1329 11.3596 26.1613C12.0548 26.1805 12.6668 26.4951 12.6514 27.3282C12.6376 28.0774 12.062 28.3593 11.4198 28.384C10.4896 28.4197 9.55737 28.4229 8.6265 28.4067C8.1137 28.3978 7.64032 28.2255 7.44605 27.6594C7.2272 27.0217 7.471 26.5612 8.14796 26.225Z" fill="white"/>
<path d="M2.17201 42.1679C2.886 42.1669 3.4759 42.1467 4.0592 42.2027C4.59175 42.2539 5.00667 42.5293 5.01819 43.167C5.0304 43.8435 4.67168 44.2545 4.04836 44.2947C3.16867 44.3515 2.28416 44.3429 1.40198 44.3339C0.739017 44.3271 0.22252 44.0455 0.221194 43.265C0.219976 42.5483 0.727236 42.3338 1.31415 42.27C1.55807 42.2436 1.80143 42.2114 2.17201 42.1679Z" fill="white"/>
<path d="M79.6925 64.5797C79.1364 64.5278 78.6792 64.5446 78.28 64.3925C77.8414 64.2253 77.6409 63.7935 77.6343 63.2807C77.6277 62.7648 77.8124 62.3676 78.2747 62.1799C79.0273 61.8743 79.8151 61.8517 80.572 62.1084C81.1398 62.3011 81.4467 62.8308 81.3544 63.44C81.2222 64.3129 80.527 64.4891 79.6925 64.5797Z" fill="white"/>
<path d="M79.6513 76.7141C80.5211 76.9209 81.0166 77.3799 80.9745 78.2283C80.9367 78.9903 80.3238 79.2047 79.7421 79.3382C78.9749 79.5143 78.2374 79.3553 77.7891 78.6425C77.1792 77.6727 77.9432 76.8372 79.6513 76.7141Z" fill="white"/>
<path d="M77.8676 71.4879C78.5334 70.7095 79.311 70.8916 80.0211 70.9577C80.954 71.0446 81.3756 72.1747 80.7472 72.8981C80.0853 73.66 79.1745 73.4368 78.3962 73.2249C77.655 73.0232 77.5029 72.3449 77.8676 71.4879Z" fill="white"/>
<path d="M79.4476 94.3784C80.2713 94.5376 80.6833 94.9657 80.716 95.7449C80.7373 96.2547 80.5567 96.6913 80.0841 96.8317C79.4229 97.0281 78.7284 97.0744 78.1221 96.6362C77.7323 96.3544 77.5544 95.9129 77.7109 95.4244C77.9678 94.6224 78.6243 94.4402 79.4476 94.3784Z" fill="white"/>
<path d="M77.901 86.1706C78.5711 85.3889 79.2692 85.3688 79.9081 85.9251C80.4328 86.382 80.3893 87.0447 80.0274 87.601C79.6535 88.1758 79.0888 88.3237 78.4803 88.019C77.764 87.6602 77.4365 87.1107 77.901 86.1706Z" fill="white"/>
<path d="M78.6383 67.5541C77.9081 67.2658 77.5755 66.8056 77.6514 66.0858C77.705 65.5769 77.9588 65.1976 78.4418 65.0817C79.139 64.9144 79.7772 65.0554 79.9547 65.8837C80.1666 66.8728 79.7439 67.4769 78.6383 67.5541Z" fill="white"/>
<path d="M80.0695 80.9809C79.8674 81.9253 79.383 82.3739 78.5645 82.1817C77.9829 82.0451 77.6433 81.5949 77.6673 80.934C77.6887 80.3427 78.0265 79.9312 78.5396 79.8223C79.3181 79.6569 79.8826 79.9878 80.0695 80.9809Z" fill="white"/>
</g>
<defs>
<clipPath id="clip0_8_2">
<rect width="223" height="100" fill="white"/>
</clipPath>
</defs>
</svg>
