<svg width="116" height="144" viewBox="0 0 116 144" fill="none" xmlns="http://www.w3.org/2000/svg">
<g clip-path="url(#clip0_8_65)">
<path d="M66.5873 121.671C66.1192 122.468 66.3469 123.377 66.3376 124.256C66.3083 127.034 66.3011 129.814 66.3519 132.592C66.3763 133.923 65.8419 134.482 64.568 134.407C63.6733 134.354 62.7735 134.367 61.8768 134.386C60.7076 134.411 60.2863 133.747 60.2848 132.646C60.2751 125.394 60.2538 118.142 60.257 110.891C60.2578 108.969 60.6 108.648 62.434 108.615C67.5537 108.524 67.5686 108.518 69.4131 113.343C70.6017 116.452 71.7351 119.583 72.9018 122.701C73.1477 123.358 73.2809 124.082 73.9721 124.734C74.9713 122.124 75.936 119.61 76.8964 117.095C77.773 114.799 78.6779 112.513 79.5048 110.198C79.9077 109.069 80.5763 108.559 81.7464 108.61C83.0401 108.667 84.3381 108.635 85.634 108.619C86.7186 108.605 87.2974 109.034 87.2938 110.254C87.2711 117.767 87.2719 125.28 87.2859 132.793C87.288 133.894 86.8384 134.414 85.7692 134.392C84.8722 134.374 83.972 134.346 83.078 134.402C81.6356 134.493 81.1254 133.767 81.1381 132.36C81.1702 128.811 81.1488 125.262 80.961 121.645C79.8 124.671 78.6384 127.696 77.4788 130.722C77.3506 131.057 77.2398 131.398 77.1108 131.733C76.1058 134.335 74.7511 135.04 72.1599 134.343C71.2847 134.107 71.0949 133.332 70.8228 132.626C69.4222 128.996 68.0341 125.36 66.5873 121.671Z" fill="white"/>
<path d="M113.177 131.59C116.048 134.797 115.62 134.307 112.858 136.539C111.195 137.884 111.142 137.968 109.779 136.235C108.666 134.82 107.653 134.378 105.751 134.896C97.5959 137.118 89.7423 130.438 89.7723 121.531C89.7966 114.332 94.3439 108.979 101.466 108.089C106.953 107.402 113.495 110.7 115.48 117.886C116.65 122.122 115.793 126.022 113.436 129.628C113.065 130.195 112.407 130.733 113.177 131.59ZM96.421 117.762C95.0616 120.899 95.271 123.905 97.3928 126.578C98.859 128.425 100.792 129.451 103.302 129.224C102.923 127.952 101.101 127.484 101.7 126.191C102.156 125.208 103.307 124.565 104.157 123.781C104.953 123.047 105.66 123.193 106.34 123.996C106.982 124.757 107.57 125.591 108.541 126.18C110.242 123.918 110.372 121.508 109.562 119.01C108.617 116.092 106.517 114.444 103.63 114.061C100.609 113.661 98.1636 114.807 96.421 117.762Z" fill="white"/>
<path d="M41.0652 132.811C37.4132 128.827 37.1579 122.941 40.3615 119.103C42.4972 116.544 46.6309 114.747 51.1535 117.406C52.5214 115.586 54.452 116.412 56.2029 116.394C56.9371 116.386 57.0901 117.109 57.1098 117.766C57.1697 119.771 57.2825 121.776 57.266 123.78C57.235 127.533 57.319 131.285 57.1626 135.042C56.8821 141.782 49.9917 145.875 43.4841 143.143C41.3082 142.229 39.7086 140.666 38.9248 138.334C38.391 136.746 38.6533 136.367 40.241 136.337C41.2872 136.317 42.3345 136.364 43.3811 136.358C43.9764 136.354 44.3962 136.602 44.7872 137.072C46.0214 138.555 47.5721 138.996 49.1567 138.383C50.5679 137.837 51.4768 136.303 51.4935 134.418C51.4962 134.122 51.4541 133.825 51.423 133.392C47.8036 135.789 44.3989 135.604 41.0652 132.811ZM47.3504 129.829C49.7688 129.716 51.2182 128.529 51.474 126.453C51.757 124.156 50.7919 122.285 49.0314 121.717C46.8634 121.017 44.7903 122.074 44.1422 124.21C43.3659 126.767 44.5566 128.997 47.3504 129.829Z" fill="white"/>
<path d="M36.423 124.111C37.1273 130.129 33.4196 134.456 28.4275 135.115C24.5482 135.628 21.3381 134.339 19.0991 130.964C16.959 127.738 16.954 123.314 19.0966 120.224C21.4254 116.865 24.6955 115.446 28.6122 116.156C32.8414 116.923 35.542 119.538 36.423 124.111ZM26.7056 129.827C27.324 129.925 27.8978 129.709 28.4482 129.491C30.3136 128.751 31.2999 126.61 30.7628 124.552C30.2391 122.545 28.5349 121.442 26.3964 121.726C24.5044 121.977 23.2255 123.619 23.2579 125.755C23.29 127.865 24.1968 128.999 26.7056 129.827Z" fill="white"/>
<path d="M8.24169 128.654C10.5768 128.654 12.7686 128.681 14.9593 128.643C16.0232 128.625 16.5288 129.12 16.588 130.179C16.5937 130.281 16.5971 130.384 16.6031 130.487C16.8348 134.471 16.7455 134.573 12.8952 134.578C9.35922 134.583 5.8232 134.58 2.28719 134.576C0.248439 134.574 0.0273837 134.361 0.0263156 132.327C0.0224993 125.026 0.0602076 117.725 0.000211934 110.425C-0.0126162 108.864 0.555822 108.353 2.00127 108.325C5.88859 108.25 5.89103 108.208 5.89545 112.199C5.90068 116.929 5.89976 121.658 5.9014 126.388C5.90218 128.638 5.90208 128.638 8.24169 128.654Z" fill="white"/>
<path d="M92.5414 97.4668C96.6645 97.5257 100.651 97.5957 104.638 97.6378C105.371 97.6456 105.956 97.8455 105.998 98.6922C106.039 99.5322 105.458 99.8567 104.752 99.9228C104.263 99.9687 103.768 99.9579 103.275 99.9582C81.108 99.9723 58.9406 99.9849 36.7732 99.9976C36.6254 99.9977 36.4772 100.004 36.3299 99.9953C35.5029 99.9445 34.4733 100.075 34.4575 98.8073C34.4406 97.4622 35.5082 97.6928 36.3136 97.6885C39.0229 97.6742 41.7335 97.6393 44.4412 97.7108C45.762 97.7457 46.0609 97.3444 45.6711 95.9838C43.8951 89.7858 42.2045 83.5607 40.4729 77.3485C39.7958 74.9196 39.9218 74.7346 42.4109 74.7322C44.135 74.7306 45.8598 74.7063 47.583 74.7482C48.588 74.7726 49.0082 74.3553 48.9781 73.2797C48.9245 71.3625 48.8445 69.4364 48.9561 67.5257C49.2095 63.1828 46.1772 61.1668 42.9798 60.9046C40.2867 60.6837 37.5648 60.8526 34.8557 60.8472C34.0312 60.8455 33.2826 61.1222 32.6884 61.6977C30.679 63.6443 28.2888 62.4618 26.0681 62.6006C25.5067 62.6357 25.568 61.9425 25.5553 61.4842C25.5388 60.8906 25.767 60.3361 26.3649 60.438C29.2938 60.9367 31.7847 59.3956 34.4559 58.6671C35.5287 58.3745 36.6991 58.4787 38.0245 58.3888C36.9043 56.2634 35.9103 54.164 34.721 52.1953C33.9128 50.8576 32.5589 50.2775 31.0366 50.2483C29.9043 50.2266 28.7706 50.247 27.6394 50.2002C26.9732 50.1726 26.5058 49.8161 26.5038 49.0455C26.5021 48.3404 26.9298 48.0323 27.5433 47.983C32.1091 47.6159 36.1552 48.0189 38.2035 53.9637C39.1156 56.611 40.8454 58.253 43.622 58.5622C45.4509 58.7658 47.2012 59.294 48.7373 60.8284C49.066 59.5996 48.904 58.5337 48.922 57.4926C48.9517 55.782 48.9417 54.0703 48.9281 52.3592C48.9024 49.1151 46.6747 46.6665 43.5879 46.5501C41.9152 46.4871 40.2386 46.5401 38.5638 46.5323C35.2548 46.5168 32.2625 44.4729 31.1302 41.1778C29.7236 37.0845 27.1301 34.8968 22.9419 34.9248C22.6483 34.9267 22.3535 34.8711 22.0607 34.8311C21.4361 34.7456 20.8549 34.5581 20.8659 33.7443C20.8781 32.8398 21.508 32.7148 22.1986 32.6586C26.9966 32.2682 30.8746 34.7436 32.7701 39.4222C34.3424 43.3027 35.6934 44.1904 39.6139 44.2007C45.1097 44.2152 44.0182 43.6235 48.9165 46.1619C48.9165 44.1088 48.822 42.1653 48.934 40.2352C49.2944 34.0244 47.1786 32.3441 41.8592 32.6987C39.4592 32.8587 37.0387 32.7442 34.6249 32.5902C30.3232 32.3156 27.8486 29.7665 27.6829 25.206C27.6189 23.4452 27.6378 21.6802 27.652 19.9174C27.667 18.0495 27.8562 17.9019 29.9338 18.2281C29.9338 19.8184 29.917 21.4606 29.94 23.1021C29.9544 24.1367 29.9872 25.1746 30.0842 26.2035C30.3059 28.5566 31.8037 30.1345 34.0505 30.204C37.25 30.303 40.4533 30.2894 43.6549 30.2867C48.1953 30.2827 51.1485 33.3473 51.1525 38.1498C51.1621 49.7654 51.1555 61.3809 51.1596 72.9965C51.1602 74.6294 51.4868 74.9043 52.9766 74.733C53.6407 74.6567 53.959 74.3544 53.9572 73.6565C53.9557 73.0344 53.968 72.4122 53.9764 71.79C54.1537 58.6746 54.0806 45.5593 53.9896 32.4436C53.968 29.3219 52.5873 27.2646 49.9838 25.9716C48.8291 25.3981 47.6275 24.9173 46.6449 24.0056C45.4734 22.9187 44.8217 21.5866 44.7667 19.9367C44.7429 19.2246 44.9311 18.7181 45.7191 18.6716C46.4127 18.6307 46.9165 18.8689 46.9437 19.6586C47.0109 21.6123 48.1759 22.6207 49.7189 23.2945C51.1692 23.9278 52.5333 24.7149 53.9727 25.9637C53.9727 24.1373 53.9616 22.6053 53.9786 21.0736C53.9849 20.5076 54.0019 19.9298 54.1146 19.3802C54.2454 18.7419 54.7025 18.415 55.3228 18.503C55.8974 18.5846 56.1466 19.0249 56.157 19.6094C56.1707 20.3869 56.1694 21.1648 56.1711 21.9425C56.1785 25.4167 56.1825 28.891 56.1934 32.3653C56.1954 32.9812 56.1413 33.6132 56.6163 34.3814C58.1925 32.4424 60.4422 31.7612 62.404 30.5558C63.7294 29.7415 64.3715 28.3415 64.3496 26.6112C64.2938 22.2042 64.3179 17.7962 64.3114 13.3885C64.3107 12.9219 64.3158 12.4553 64.3244 11.9887C64.3411 11.0883 64.8084 10.6547 65.6351 10.6829C66.4434 10.7105 66.5305 11.3306 66.5307 12.0021C66.5317 15.0097 66.5401 18.0172 66.5407 21.0248C66.541 22.6323 66.4742 24.2423 66.5372 25.8468C66.6877 29.6765 64.8782 32.1178 61.6692 33.551C60.3777 34.1278 59.214 34.8246 58.2837 35.9602C57.0093 37.5159 56.3352 39.2495 56.3381 41.3389C56.3492 49.5302 56.4998 57.7218 56.2331 65.9132C56.154 68.3423 56.3322 70.7798 56.344 73.2137C56.3489 74.2193 56.6296 74.741 57.6951 74.7464C58.8306 74.7521 58.9461 74.1135 58.9443 73.1583C58.9266 63.8762 58.9316 54.5941 58.9348 45.3121C58.9361 41.7752 60.0762 40.0197 63.2672 38.7427C63.881 38.497 64.2018 38.1358 64.4354 37.4983C65.8294 33.6931 67.8227 32.2994 71.6167 32.3994C73.8464 32.4582 75.1962 30.9856 75.4832 28.0883C75.6362 26.5447 75.7141 24.9916 75.7839 23.4406C75.818 22.6838 75.9426 22.1141 76.8335 22.1093C77.6815 22.1046 77.9747 22.6146 77.9734 23.3856C77.9693 25.8797 77.8477 28.3717 77.0097 30.7332C75.9868 33.6157 74.1515 34.7672 70.898 34.7106C68.4705 34.6683 67.0061 35.8868 66.8221 38.1203C67.3539 38.4958 67.9592 38.3195 68.5332 38.3326C70.9925 38.389 73.4743 38.537 75.9068 38.43C79.591 38.268 83.0378 36.9503 85.7458 34.0889C86.4887 33.3039 86.9489 32.3186 87.1429 31.2208C87.3027 30.3159 87.7069 29.7934 88.6567 30.0414C89.7307 30.3219 89.3374 31.1872 89.187 31.811C88.5621 34.4024 87.0818 36.4291 84.9125 37.7143C81.9401 39.4754 78.81 40.8022 75.2622 40.6769C72.2114 40.5692 69.1545 40.6462 66.1003 40.6466C62.3449 40.6472 60.7353 42.6476 61.3404 46.6282C65.1909 44.0203 69.452 45.3294 73.5531 45.224C74.6228 45.1965 75.6256 45.9936 76.3441 46.8453C77.1096 47.7528 77.9788 48.0672 79.0696 48.0639C80.4961 48.0597 81.9226 48.1332 83.3494 48.1556C83.9502 48.165 84.445 48.2991 84.4974 49.0493C84.5495 49.7934 84.1972 50.2685 83.5038 50.3345C81.2447 50.5497 78.9824 50.5652 76.7224 50.3231C76.046 50.2507 75.7355 49.7031 75.4039 49.186C74.629 47.978 73.5578 47.3581 72.1654 47.3614C70.0474 47.3665 67.9275 47.3055 65.812 47.3825C62.9798 47.4857 61.1847 49.5023 61.1753 52.4753C61.1666 55.2014 61.1734 57.9276 61.1734 61.0754C64.3345 58.4266 67.7249 59.2291 70.9632 59.2014C79.8789 59.1249 88.7955 59.1594 97.7118 59.1733C98.6892 59.1748 100.122 58.8485 100.068 60.4641C100.016 62.0336 98.5839 61.4694 97.7118 61.4722C87.4249 61.5053 77.1367 61.5806 66.8515 61.4365C63.6134 61.3912 60.7982 63.7967 61.1533 67.5073C61.3351 69.4068 61.2256 71.3424 61.1739 73.2594C61.1452 74.3251 61.5121 74.7591 62.54 74.7346C64.4601 74.6887 66.3821 74.7126 68.3031 74.7327C70.1048 74.7515 70.2957 75.0738 69.7903 76.8429C67.9766 83.1922 66.1782 89.5464 64.3932 95.9047C63.9344 97.5387 64.0491 97.6782 65.6877 97.679C72.6827 97.6822 79.6779 97.6887 86.6729 97.6619C88.5837 97.6547 90.4942 97.5358 92.5414 97.4668Z" fill="white"/>
<path d="M71.9451 13.1114C72.3936 12.4974 72.9192 12.4238 73.4763 12.4249C75.5909 12.4291 77.7057 12.4443 79.8201 12.4222C80.8805 12.4111 81.3268 12.9155 81.3174 14.0255C81.3056 15.4212 81.3828 16.8176 81.4057 18.214C81.4225 19.2292 80.9457 19.7482 79.9652 19.7389C77.7525 19.718 75.5394 19.7145 73.3269 19.6806C72.4078 19.6666 71.811 19.1691 71.7796 18.1762C71.7274 16.5284 71.5227 14.8726 71.9451 13.1114Z" fill="white"/>
<path d="M19.4071 63.8299C19.116 63.8306 18.9684 63.833 18.8208 63.8312C14.1793 63.7734 14.9792 64.4339 14.8949 59.4142C14.8811 58.593 15.1546 58.152 15.9925 58.1583C17.8122 58.1721 19.6322 58.1501 21.4521 58.1501C21.6466 58.1501 21.9211 58.1204 22.0236 58.2364C23.1889 59.556 22.5154 61.1536 22.5707 62.6373C22.6071 63.6127 21.9258 63.8 21.1738 63.8146C20.6329 63.8251 20.0918 63.8249 19.4071 63.8299Z" fill="white"/>
<path d="M90.057 27.8833C88.8798 27.8752 87.8478 27.8635 86.8158 27.8606C86.2443 27.859 85.6628 27.7657 85.4884 27.12C85.0654 25.5533 85.1994 23.9484 85.3764 22.3592C85.4211 21.9573 85.7878 21.8002 86.1701 21.838C86.6451 21.8849 86.9325 22.2632 86.8792 22.6761C86.6172 24.7058 87.8403 24.675 89.1585 24.5986C89.8444 24.5589 90.5369 24.6325 91.2217 24.5827C92.3941 24.4973 92.7706 25.1097 92.7867 26.2575C92.8032 27.4327 92.4045 28.0208 91.2336 27.8902C90.8934 27.8522 90.5461 27.8838 90.057 27.8833Z" fill="white"/>
<path d="M97.7147 91.0394C94.8742 91.0433 92.176 91.0441 89.4779 91.0524C88.5868 91.0551 87.6802 90.9542 87.6986 89.7536C87.7166 88.58 88.6558 88.6458 89.4496 88.6467C92.2459 88.6499 95.0423 88.6463 97.8384 88.678C98.7665 88.6886 100.066 88.3454 100.026 89.9399C99.9874 91.4565 98.7009 90.9133 97.7147 91.0394Z" fill="white"/>
<path d="M25.2924 14.3878C25.1467 12.7184 25.7624 12.0611 27.2522 12.1706C28.5258 12.2643 29.8109 12.2164 31.0901 12.1876C32.588 12.1539 32.5032 13.2295 32.5319 14.3076C32.5608 15.3938 32.3643 16.1176 31.0932 16.0499C29.6693 15.974 28.2378 15.9944 26.812 16.0455C25.7641 16.083 25.2136 15.6845 25.2924 14.3878Z" fill="white"/>
<path d="M42.0514 16.3909C39.6996 16.4013 39.6347 16.3024 39.7104 14.2977C39.7463 13.3476 40.1372 13.0342 40.9795 13.0463C42.7937 13.0724 44.6089 13.0788 46.423 13.0467C47.6135 13.0257 47.9058 13.6871 47.9071 14.8067C47.9085 15.9119 47.5378 16.4284 46.4492 16.3956C45.0282 16.3528 43.605 16.3883 42.0514 16.3909Z" fill="white"/>
<path d="M99.6961 81.8973C97.8721 82.574 96.0957 82.2203 94.3403 82.22C93.6618 82.2198 92.9978 82.0333 92.299 82.2138C91.5534 82.4063 91.0403 82.0104 90.9145 81.2172C90.7826 80.3853 91.2335 79.929 91.9759 79.853C94.3299 79.6122 96.6972 79.6304 99.0452 79.8208C100.15 79.9104 100.253 80.8499 99.6961 81.8973Z" fill="white"/>
<path d="M91.5594 86.2C94.071 85.2927 96.5778 85.6533 99.059 85.6368C99.7578 85.6321 100.081 86.1964 100.109 86.8901C100.14 87.6685 99.6483 88.0487 99.0056 88.0622C96.8031 88.1083 94.5972 88.1505 92.3971 88.0657C91.3839 88.0267 91.0901 87.2907 91.5594 86.2Z" fill="white"/>
<path d="M96.3676 67.402C95.1061 67.4631 93.9788 67.5604 92.8507 67.5707C91.9862 67.5786 91.0361 67.4576 91.0389 66.2601C91.0416 65.1624 91.9024 65.0263 92.7437 65.0256C94.7117 65.0241 96.6798 65.0371 98.6476 65.0158C99.5421 65.0061 100.102 65.4107 100.089 66.3601C100.077 67.2523 99.3997 67.381 98.7154 67.3889C97.9775 67.3974 97.2394 67.3971 96.3676 67.402Z" fill="white"/>
<path d="M44.5191 5.01881C45.0917 5.04437 45.5378 5.03258 45.971 5.10562C46.4762 5.19077 46.7129 5.56863 46.7308 6.09673C46.7513 6.69935 46.4795 7.17181 45.923 7.20339C44.3576 7.29226 42.7843 7.38409 41.2249 7.10537C40.8111 7.0314 40.4357 6.75087 40.4183 6.3093C40.3675 5.02227 40.3578 3.72996 40.4128 2.44355C40.4341 1.94519 40.8149 1.60914 41.3305 1.62729C41.7728 1.64285 42.035 1.96192 42.1732 2.37693C42.2367 2.56773 42.2863 2.79012 42.2577 2.98438C41.9892 4.8073 42.8852 5.25975 44.5191 5.01881Z" fill="white"/>
<path d="M94.4324 41.4295C93.37 41.3819 92.4402 41.2966 91.5101 41.2913C90.4621 41.2853 89.9786 40.7746 90.003 39.6795C90.0249 38.6989 89.994 37.7164 90.0381 36.7373C90.0649 36.1444 90.2579 35.5751 90.9378 35.526C91.6166 35.4771 91.8086 35.9942 91.9775 36.5898C92.2294 37.4784 91.7456 38.6504 92.4466 39.2421C93.1241 39.8141 94.1524 39.2847 95.0207 39.3577C95.581 39.4048 96.3288 39.3655 96.3018 40.2634C96.2657 41.4633 95.329 41.3398 94.4324 41.4295Z" fill="white"/>
<path d="M29.4779 9.4007C30.7509 9.43063 31.8794 9.43584 33.005 9.49879C33.5865 9.53131 34.0833 9.8106 34.1112 10.5078C34.1402 11.2302 33.611 11.5473 33.057 11.5559C30.7049 11.5922 28.3517 11.5734 25.9994 11.5362C25.4834 11.5281 25.041 11.2703 24.9918 10.6226C24.9366 9.89693 25.3749 9.54526 25.9543 9.50012C27.0765 9.41266 28.2058 9.42747 29.4779 9.4007Z" fill="white"/>
<path d="M100.101 63.5051C99.845 64.3315 99.3085 64.5195 98.6801 64.5238C96.9635 64.5355 95.2468 64.5484 93.5302 64.5376C92.7837 64.533 92.1348 64.2988 92.0821 63.3637C92.0273 62.392 92.6989 62.1237 93.4265 62.0908C95.1896 62.0109 96.9552 61.9854 98.7201 61.9607C99.6067 61.9483 100.082 62.4344 100.101 63.5051Z" fill="white"/>
<path d="M92.9104 53.7009C91.4957 53.7104 90.2163 53.702 88.9371 53.7086C88.1207 53.7127 87.6469 53.3759 87.5958 52.4473C87.5334 51.3114 87.3475 50.1805 87.5076 49.0396C87.5836 48.4979 87.7559 48.0101 88.3677 47.9493C88.9872 47.8878 89.4038 48.3622 89.3511 48.862C89.0486 51.7322 90.6987 51.8735 92.6945 51.6642C93.2626 51.6046 93.8109 51.8073 93.9226 52.5078C94.0311 53.1882 93.6834 53.5788 92.9104 53.7009Z" fill="white"/>
<path d="M100.137 72.2405C99.9741 73.0328 99.5402 73.2822 98.9362 73.2848C96.9831 73.2933 95.0299 73.2975 93.0767 73.3123C92.3323 73.3179 91.8274 73.0309 91.8252 72.1719C91.8231 71.3431 92.2887 70.9595 93.0364 70.952C94.9921 70.9323 96.948 70.9347 98.9038 70.9218C99.669 70.9168 100.096 71.288 100.137 72.2405Z" fill="white"/>
<path d="M100.006 95.2185C100.274 96.3967 99.8426 96.9172 98.8302 96.9236C96.8625 96.9362 94.8946 96.9418 92.9268 96.9395C92.3416 96.9388 91.8433 96.7788 91.7676 96.0364C91.6933 95.3079 91.9828 94.705 92.6641 94.6782C94.921 94.5894 97.1819 94.5983 99.441 94.6108C99.6146 94.6118 99.7865 94.9336 100.006 95.2185Z" fill="white"/>
<path d="M92.0248 77.9136C92.2146 76.9284 92.8554 76.8602 93.5148 76.8546C95.1809 76.8406 96.8472 76.8516 98.5132 76.8299C99.3519 76.819 100.031 77.0935 100.066 78.0614C100.106 79.1361 99.3296 79.2291 98.5342 79.2239C96.8191 79.2125 95.1038 79.2109 93.3888 79.2239C92.6012 79.2298 92.0308 78.9999 92.0248 77.9136Z" fill="white"/>
<path d="M52.0318 11.3074C51.1512 10.1377 51.3132 9.51039 52.5368 9.44975C54.5449 9.35019 56.5618 9.41005 58.5737 9.4587C59.1152 9.4718 59.6854 9.67336 59.6766 10.4374C59.6683 11.1597 59.2054 11.3741 58.6 11.4387C56.4444 11.6686 54.2925 11.7356 52.0318 11.3074Z" fill="white"/>
<path d="M18.5918 40.5725C18.6329 41.5097 18.1803 41.825 17.4993 41.8308C15.53 41.8476 13.5604 41.8481 11.591 41.8376C10.9761 41.8343 10.5429 41.539 10.498 40.8376C10.4589 40.2282 10.7651 39.7907 11.3181 39.7355C13.6214 39.5057 15.9297 39.367 18.2056 39.9794C18.3542 40.0194 18.4492 40.2803 18.5918 40.5725Z" fill="white"/>
<path d="M18.8135 23.4197C19.541 23.4327 20.1346 23.4005 20.7161 23.4738C21.3384 23.5523 21.6615 23.9845 21.6422 24.6562C21.6242 25.2823 21.2693 25.6343 20.7105 25.6376C18.746 25.6491 16.7805 25.6431 14.8171 25.5836C14.2493 25.5664 13.7492 25.2446 13.7645 24.5268C13.7822 23.6948 14.3377 23.5635 14.9927 23.5504C16.2202 23.5259 17.4471 23.4661 18.8135 23.4197Z" fill="white"/>
<path d="M62.4986 8.69947C61.7889 7.53292 62.3464 7.01006 63.289 6.96384C65.1055 6.87479 66.929 6.90918 68.7487 6.94437C69.3136 6.95529 69.8459 7.22284 69.8954 7.92418C69.9456 8.63516 69.4718 8.99758 68.8845 9.0037C66.7838 9.02555 64.6665 9.44189 62.4986 8.69947Z" fill="white"/>
<path d="M57.4359 16.8631C55.9757 16.8646 54.6503 16.8752 53.3255 16.8517C52.6087 16.8391 51.8703 16.7396 51.8829 15.7307C51.8957 14.7162 52.665 14.6559 53.3618 14.6433C54.9319 14.6149 56.503 14.6508 58.0733 14.6277C58.8557 14.6161 59.5001 14.8425 59.5394 15.7506C59.5745 16.5626 58.9074 16.6857 58.302 16.7709C58.0589 16.8051 57.8146 16.8293 57.4359 16.8631Z" fill="white"/>
<path d="M43.0697 12.0347C41.5559 12.0661 40.1852 12.1334 38.8158 12.1128C38.1289 12.1024 37.3605 12.0103 37.4081 10.9674C37.4504 10.0393 38.1297 9.97563 38.7898 9.97082C40.6511 9.95723 42.5125 9.96124 44.3738 9.96208C45.1159 9.96241 45.7997 10.0915 45.7784 11.0982C45.7575 12.09 45.0227 12.0037 44.3888 12.0261C43.9973 12.0399 43.6051 12.0322 43.0697 12.0347Z" fill="white"/>
<path d="M96.8608 91.5267C97.6393 91.5392 98.2781 91.5295 98.914 91.57C99.584 91.6127 100.032 91.9781 100.079 92.7147C100.126 93.4616 99.7227 93.8716 99.0472 93.969C97.5333 94.1874 96.0107 94.1369 94.4963 94.0099C93.819 93.9531 93.4907 93.4532 93.5193 92.7084C93.5459 92.0165 93.9088 91.647 94.5152 91.5916C95.2464 91.5248 95.9847 91.5445 96.8608 91.5267Z" fill="white"/>
<path d="M94.4201 73.8973C95.9228 73.841 97.2998 73.8 98.6767 73.7959C99.5369 73.7933 100.128 74.2147 100.106 75.1812C100.085 76.1385 99.3931 76.3272 98.6505 76.3327C97.4203 76.3418 96.1897 76.3368 94.9598 76.3102C94.3936 76.2979 93.8631 76.1394 93.6973 75.4633C93.5372 74.8108 93.579 74.2168 94.4201 73.8973Z" fill="white"/>
<path d="M11.8399 37.0695C13.2961 37.0666 14.6152 37.0492 15.9337 37.0725C16.6165 37.0846 17.2678 37.3098 17.2748 38.1627C17.282 39.0267 16.6041 39.2451 15.9406 39.2667C14.5741 39.3111 13.2053 39.3144 11.8384 39.2852C11.0683 39.2687 10.077 39.3264 10.0043 38.2303C9.92556 37.0433 10.9455 37.1635 11.8399 37.0695Z" fill="white"/>
<path d="M95.5101 36.8366C96.8275 36.83 98.0104 36.7936 99.1892 36.8515C99.8047 36.8818 100.418 37.1584 100.37 37.9521C100.325 38.6831 99.7795 39.0121 99.1255 39.0169C97.5012 39.029 95.8762 39.0179 94.2524 38.9788C93.6472 38.9642 93.0189 38.8466 92.9934 37.9993C92.9674 37.1342 93.5824 37.0435 94.1997 36.9821C94.5917 36.9432 94.9826 36.8918 95.5101 36.8366Z" fill="white"/>
<path d="M87.5602 23.0079C87.5233 22.1196 87.9197 21.7654 88.621 21.7628C90.5761 21.7556 92.5313 21.7546 94.4864 21.7576C95.084 21.7585 95.5798 21.9664 95.607 22.6853C95.6296 23.2844 95.2481 23.7082 94.7237 23.7359C92.5785 23.849 90.4284 23.8953 88.2883 23.6442C88.0435 23.6155 87.8284 23.3059 87.5602 23.0079Z" fill="white"/>
<path d="M63.2003 3.66967C62.4984 3.47979 62.0718 3.1627 62.2117 2.44565C62.3317 1.83037 62.8149 1.64274 63.3322 1.63804C64.9071 1.62371 66.483 1.61594 68.0568 1.66611C68.7368 1.6878 69.3817 1.98539 69.3508 2.84051C69.3212 3.66042 68.6179 3.77103 68.0363 3.77669C66.4639 3.79201 64.8908 3.72879 63.2003 3.66967Z" fill="white"/>
<path d="M99.5206 70.1987C97.9559 70.6652 96.4786 70.4421 95.0129 70.4536C94.2902 70.4592 93.9564 69.9623 93.9283 69.2548C93.9023 68.5968 94.2268 68.1822 94.8547 68.0663C96.2682 67.8052 97.7006 67.819 99.1117 67.9654C100.191 68.0772 100.359 68.9486 99.5206 70.1987Z" fill="white"/>
<path d="M17.3892 48.5236C19.1566 48.1218 20.828 48.3238 22.4912 48.3068C23.1943 48.2997 23.8088 48.6587 23.7911 49.4685C23.7731 50.2966 23.1101 50.5443 22.4229 50.553C20.9511 50.5717 19.4758 50.6121 18.0077 50.5297C16.7723 50.4604 16.5432 49.7626 17.3892 48.5236Z" fill="white"/>
<path d="M66.1177 4.13232C66.8457 4.14673 67.4332 4.14164 68.0182 4.17882C68.6842 4.22114 69.1426 4.53406 69.1382 5.31501C69.1342 6.0397 68.6799 6.32227 68.0863 6.33283C66.4737 6.36152 64.86 6.36998 63.2478 6.33422C62.6759 6.32152 62.1786 6.05748 62.1876 5.32112C62.1959 4.63914 62.6252 4.25219 63.1955 4.19712C64.1165 4.10818 65.0487 4.14676 66.1177 4.13232Z" fill="white"/>
<path d="M16.7902 47.265C16.6508 46.3443 16.9314 45.779 17.7338 45.7563C19.3499 45.7105 20.9679 45.7295 22.5851 45.7404C23.1504 45.7443 23.5149 46.073 23.5832 46.6651C23.6421 47.1759 23.4278 47.6948 22.9556 47.7532C20.9032 48.0071 18.8203 48.5391 16.7902 47.265Z" fill="white"/>
<path d="M44.9695 2.50558C46.475 2.50773 47.8473 2.49655 49.2188 2.52558C49.838 2.53868 50.4469 2.7076 50.4772 3.51484C50.5101 4.38925 49.8799 4.69755 49.2113 4.69486C47.499 4.68795 45.7871 4.5866 44.075 4.52296C43.5416 4.50314 43.256 4.21068 43.2626 3.65044C43.2761 2.50229 44.1155 2.59085 44.9695 2.50558Z" fill="white"/>
<path d="M94.1704 82.9333C95.7944 82.8268 97.3079 82.7901 98.8214 82.7527C99.6633 82.7318 100.129 83.1619 100.101 84.0495C100.074 84.9332 99.4723 85.1123 98.7688 85.1104C97.5946 85.1072 96.4201 85.128 95.2463 85.1041C93.6429 85.0716 93.4074 84.6392 94.1704 82.9333Z" fill="white"/>
<path d="M100.039 35.2718C99.8978 36.0908 99.4059 36.2568 98.8226 36.2611C97.1994 36.273 95.5761 36.2762 93.9529 36.2853C93.3377 36.2887 92.8725 36.067 92.8327 35.3474C92.7882 34.5448 93.269 34.2365 93.9465 34.2303C95.5696 34.2156 97.1929 34.2294 98.8162 34.2303C99.4296 34.2307 99.8467 34.5157 100.039 35.2718Z" fill="white"/>
<path d="M95.2415 49.105C96.1379 49.2998 97.4432 48.6876 97.429 50.1212C97.4158 51.4548 96.184 51.1316 95.3548 51.163C94.1316 51.2093 92.9059 51.1877 91.6812 51.1879C90.9989 51.188 90.3517 51.0884 90.3684 50.1469C90.3829 49.3249 90.9499 49.159 91.5901 49.1475C92.7647 49.1263 93.9394 49.1147 95.2415 49.105Z" fill="white"/>
<path d="M17.4263 28.8812C18.2874 28.8824 19.0208 28.8935 19.7542 28.8997C20.3556 28.9048 20.8597 29.109 20.8945 29.8157C20.9334 30.6041 20.3968 30.9089 19.7505 30.9196C18.1371 30.9466 16.5223 30.9453 14.9092 30.9057C14.2558 30.8896 13.7509 30.529 13.7791 29.7656C13.8072 29.0079 14.3821 28.9304 14.9508 28.9213C15.7334 28.9088 16.516 28.8996 17.4263 28.8812Z" fill="white"/>
<path d="M93.2939 48.5811C92.4249 48.529 91.688 48.4803 90.9521 48.4185C90.3802 48.3706 90.0348 48.062 90.0319 47.4316C90.0294 46.8837 90.3452 46.5009 90.813 46.449C92.4792 46.2642 94.1552 46.2716 95.8208 46.4546C96.313 46.5086 96.5643 46.9742 96.5129 47.494C96.4618 48.0119 96.1439 48.3336 95.6347 48.3845C94.8994 48.4579 94.1626 48.5149 93.2939 48.5811Z" fill="white"/>
<path d="M87.6806 69.175C87.8248 68.2422 88.3753 67.9415 89.0579 67.9082C89.9852 67.8631 90.9162 67.875 91.8448 67.8957C92.5834 67.9121 93.0437 68.2825 93.0677 69.1172C93.0913 69.9414 92.684 70.3817 91.9329 70.4216C90.9564 70.4735 89.9771 70.4767 88.9989 70.4779C88.2589 70.4788 87.8128 70.0781 87.6806 69.175Z" fill="white"/>
<path d="M54.8868 11.9272C55.6586 11.9702 56.2958 11.996 56.9296 12.0598C57.4966 12.1169 57.831 12.4746 57.8514 13.0718C57.8725 13.6902 57.5073 14.0781 56.9617 14.0993C55.5407 14.1545 54.1166 14.1563 52.6946 14.1311C52.142 14.1213 51.7655 13.7333 51.7105 13.1598C51.6424 12.4498 52.1205 12.1297 52.6979 12.0511C53.376 11.9588 54.066 11.9638 54.8868 11.9272Z" fill="white"/>
<path d="M88.2639 76.1587C87.3044 74.6988 87.6804 73.8226 89.1833 73.775C90.0118 73.7488 90.8454 73.7982 91.673 73.8644C92.4559 73.927 92.7706 74.4809 92.746 75.2434C92.7217 75.9983 92.2525 76.3552 91.586 76.3535C90.5159 76.3507 89.4364 76.5238 88.2639 76.1587Z" fill="white"/>
<path d="M91.3665 94.0012C90.4543 94.0233 89.6663 94.0712 88.8833 94.0248C88.1336 93.9803 87.7132 93.4833 87.7144 92.7007C87.7157 91.9389 88.2248 91.5965 88.8695 91.5478C89.6519 91.4886 90.4406 91.5067 91.2263 91.517C91.914 91.5261 92.5123 91.7267 92.6518 92.5592C92.8111 93.5093 92.2657 93.8579 91.3665 94.0012Z" fill="white"/>
<path d="M90.3707 85.136C89.7421 85.1349 89.2529 85.1364 88.764 85.1226C88.04 85.1021 87.6757 84.662 87.697 83.9408C87.7192 83.1877 88.0611 82.6508 88.8658 82.6634C89.7947 82.6779 90.723 82.7377 91.6519 82.7508C92.4481 82.762 92.808 83.1817 92.8081 83.9971C92.8082 84.7916 92.3554 85.08 91.6838 85.1137C91.2932 85.1333 90.9015 85.1266 90.3707 85.136Z" fill="white"/>
<path d="M43.8064 0.0371695C45.2656 0.00850284 46.5928 -0.00676563 47.9197 0.0029007C48.5152 0.00723059 49.0116 0.22495 49.031 0.956408C49.05 1.67145 48.5919 1.98613 47.9913 2.00111C46.7145 2.03294 45.4359 2.02552 44.1591 1.99225C43.7073 1.98049 43.2688 1.79338 43.1046 1.28844C42.9161 0.708493 43.1142 0.279862 43.8064 0.0371695Z" fill="white"/>
<path d="M18.148 26.225C19.302 26.1783 20.3317 26.1329 21.3596 26.1613C22.0548 26.1805 22.6668 26.4951 22.6514 27.3282C22.6376 28.0774 22.062 28.3593 21.4198 28.384C20.4896 28.4197 19.5574 28.4229 18.6265 28.4067C18.1137 28.3978 17.6403 28.2255 17.446 27.6594C17.2272 27.0217 17.471 26.5612 18.148 26.225Z" fill="white"/>
<path d="M12.172 42.1679C12.886 42.1669 13.4759 42.1467 14.0592 42.2027C14.5918 42.2539 15.0067 42.5293 15.0182 43.167C15.0304 43.8435 14.6717 44.2545 14.0484 44.2947C13.1687 44.3515 12.2842 44.3429 11.402 44.3339C10.739 44.3271 10.2225 44.0455 10.2212 43.265C10.22 42.5483 10.7272 42.3338 11.3141 42.27C11.5581 42.2436 11.8014 42.2114 12.172 42.1679Z" fill="white"/>
<path d="M89.6925 64.5797C89.1364 64.5278 88.6792 64.5446 88.28 64.3925C87.8414 64.2253 87.6409 63.7935 87.6343 63.2807C87.6277 62.7648 87.8124 62.3676 88.2747 62.1799C89.0273 61.8743 89.8151 61.8517 90.572 62.1084C91.1398 62.3011 91.4467 62.8308 91.3544 63.44C91.2222 64.3129 90.527 64.4891 89.6925 64.5797Z" fill="white"/>
<path d="M89.6513 76.7141C90.5211 76.9209 91.0166 77.3799 90.9745 78.2283C90.9367 78.9903 90.3238 79.2047 89.7421 79.3382C88.9749 79.5143 88.2374 79.3553 87.7891 78.6425C87.1792 77.6727 87.9432 76.8372 89.6513 76.7141Z" fill="white"/>
<path d="M87.8676 71.4879C88.5334 70.7095 89.311 70.8916 90.0211 70.9577C90.954 71.0446 91.3756 72.1747 90.7472 72.8981C90.0853 73.66 89.1745 73.4368 88.3962 73.2249C87.655 73.0232 87.5029 72.3449 87.8676 71.4879Z" fill="white"/>
<path d="M89.4476 94.3784C90.2713 94.5376 90.6833 94.9657 90.716 95.7449C90.7373 96.2547 90.5567 96.6913 90.0841 96.8317C89.4229 97.0281 88.7284 97.0744 88.1221 96.6362C87.7323 96.3544 87.5544 95.9129 87.7109 95.4244C87.9678 94.6224 88.6243 94.4402 89.4476 94.3784Z" fill="white"/>
<path d="M87.901 86.1706C88.5711 85.3889 89.2692 85.3688 89.9081 85.9251C90.4328 86.382 90.3893 87.0447 90.0274 87.601C89.6535 88.1758 89.0888 88.3237 88.4803 88.019C87.764 87.6602 87.4365 87.1107 87.901 86.1706Z" fill="white"/>
<path d="M88.6383 67.5541C87.9081 67.2658 87.5755 66.8056 87.6514 66.0858C87.705 65.5769 87.9588 65.1976 88.4418 65.0817C89.139 64.9144 89.7772 65.0554 89.9547 65.8837C90.1666 66.8728 89.7439 67.4769 88.6383 67.5541Z" fill="white"/>
<path d="M90.0695 80.9809C89.8674 81.9253 89.383 82.3739 88.5645 82.1817C87.9829 82.0451 87.6433 81.5949 87.6673 80.934C87.6887 80.3427 88.0265 79.9312 88.5396 79.8223C89.3181 79.6569 89.8826 79.9878 90.0695 80.9809Z" fill="white"/>
</g>
<defs>
<clipPath id="clip0_8_65">
<rect width="116" height="144" fill="white"/>
</clipPath>
</defs>
</svg>
